<!-- Generator: Adobe Illustrator 25.1.0, SVG Export Plug-In  -->
<svg version="1.1" xmlns="http://www.w3.org/2000/svg" xmlns:xlink="http://www.w3.org/1999/xlink" x="0px" y="0px"
	 width="210.21px" height="105.1px" viewBox="0 0 210.21 105.1" style="overflow:visible;enable-background:new 0 0 210.21 105.1;"
	 xml:space="preserve">
<style type="text/css">
	.st0{fill:url(#SVGID_1_);}
	.st1{fill:url(#SVGID_2_);}
</style>
<defs>
</defs>
<g>
	<linearGradient id="SVGID_1_" gradientUnits="userSpaceOnUse" x1="631.11" y1="84.2683" x2="-859.8708" y2="-5.6342">
		<stop  offset="0" style="stop-color:#F29127"/>
		<stop  offset="0.2054" style="stop-color:#EC8426"/>
		<stop  offset="0.6036" style="stop-color:#DE6626"/>
		<stop  offset="1" style="stop-color:#D13D27"/>
	</linearGradient>
	<path class="st0" d="M210.21,52.55c0.01-6.96-4.12-13.27-10.51-16.04V21.02c0-1.93-1.57-3.5-3.5-3.5h-21.02V3.5
		c0-1.93-1.57-3.5-3.5-3.5h-24.52c-1.93,0-3.5,1.57-3.5,3.5v38.54H66.57V3.5c0-1.93-1.57-3.5-3.5-3.5H38.54
		c-1.93,0-3.5,1.57-3.5,3.5v14.01H14.02c-1.93,0-3.5,1.57-3.5,3.5v15.49C1.66,40.37-2.4,50.68,1.46,59.53
		c1.77,4.06,5,7.29,9.06,9.06v15.49c0,1.93,1.57,3.5,3.5,3.5h21.02v14.01c0,1.93,1.57,3.5,3.5,3.5h24.52c1.93,0,3.5-1.57,3.5-3.5
		V63.06h77.08v38.54c0,1.93,1.57,3.5,3.5,3.5h24.52c1.93,0,3.5-1.57,3.5-3.5V87.59h21.02c1.93,0,3.5-1.57,3.5-3.5V68.59
		C206.09,65.82,210.22,59.52,210.21,52.55z M10.51,44.71v15.68c-4.33-3.87-4.71-10.51-0.84-14.84
		C9.94,45.26,10.22,44.98,10.51,44.71z M17.52,80.58V24.52h17.52v42.04h-7.01c-1.93,0-3.5,1.57-3.5,3.5s1.57,3.5,3.5,3.5h7.01v7.01
		H17.52z M42.05,98.1V7.01h17.52v77.08h-7.01c-1.93,0-3.5,1.57-3.5,3.5s1.57,3.5,3.5,3.5h7.01v7.01H42.05z M66.57,56.06v-7.01h77.08
		v7.01H66.57z M168.17,98.1h-17.52v-7.01h7.01c1.93,0,3.5-1.57,3.5-3.5s-1.57-3.5-3.5-3.5h-7.01V7.01h17.52V98.1z M192.69,80.58
		h-17.52v-7.01h7.01c1.93,0,3.5-1.57,3.5-3.5s-1.57-3.5-3.5-3.5h-7.01V24.52h17.52V80.58z M199.7,60.39V44.71
		c4.33,3.87,4.71,10.51,0.84,14.84C200.28,59.85,200,60.13,199.7,60.39z"/>
</g>
</svg>
