<!-- Generator: Adobe Illustrator 25.1.0, SVG Export Plug-In  -->
<svg version="1.1" xmlns="http://www.w3.org/2000/svg" xmlns:xlink="http://www.w3.org/1999/xlink" x="0px" y="0px"
	 width="213.75px" height="167.54px" viewBox="0 0 213.75 167.54"
	 style="overflow:visible;enable-background:new 0 0 213.75 167.54;" xml:space="preserve">
<style type="text/css">
	.st0{fill:url(#SVGID_1_);}
	.st1{fill:url(#SVGID_2_);}
	.st2{fill:url(#SVGID_3_);}
	.st3{fill:url(#SVGID_4_);}
	.st4{fill:url(#SVGID_5_);}
	.st5{fill:url(#SVGID_6_);}
	.st6{fill:url(#SVGID_7_);}
	.st7{fill:url(#SVGID_8_);}
	.st8{fill:url(#SVGID_9_);}
	.st9{fill:url(#SVGID_10_);}
	.st10{fill:url(#SVGID_11_);}
	.st11{fill:url(#SVGID_12_);}
	.st12{fill:url(#SVGID_13_);}
	.st13{fill:url(#SVGID_14_);}
	.st14{fill:url(#SVGID_15_);}
	.st15{fill:url(#SVGID_16_);}
	.st16{fill:url(#SVGID_17_);}
	.st17{fill:url(#SVGID_18_);}
	.st18{fill:url(#SVGID_19_);}
	.st19{fill:url(#SVGID_20_);}
</style>
<defs>
</defs>
<g>
	<g>
		<linearGradient id="SVGID_1_" gradientUnits="userSpaceOnUse" x1="1408.323" y1="181.7943" x2="-82.6578" y2="91.8918">
			<stop  offset="0" style="stop-color:#F29127"/>
			<stop  offset="0.2054" style="stop-color:#EC8426"/>
			<stop  offset="0.6036" style="stop-color:#DE6626"/>
			<stop  offset="1" style="stop-color:#D13D27"/>
		</linearGradient>
		<path class="st0" d="M42.9,103.32c0,35.33,28.64,63.97,63.97,63.97s63.97-28.64,63.97-63.97s-28.64-63.97-63.97-63.97
			S42.9,67.99,42.9,103.32z M106.87,46.45c31.41,0,56.87,25.46,56.87,56.87s-25.46,56.87-56.87,56.87s-56.87-25.46-56.87-56.87
			S75.47,46.45,106.87,46.45z"/>
		<linearGradient id="SVGID_2_" gradientUnits="userSpaceOnUse" x1="1408.323" y1="181.7945" x2="-82.6578" y2="91.892">
			<stop  offset="0" style="stop-color:#F29127"/>
			<stop  offset="0.2054" style="stop-color:#EC8426"/>
			<stop  offset="0.6036" style="stop-color:#DE6626"/>
			<stop  offset="1" style="stop-color:#D13D27"/>
		</linearGradient>
		<path class="st1" d="M106.87,167.54c-35.41,0-64.22-28.81-64.22-64.22S71.46,39.1,106.87,39.1s64.22,28.81,64.22,64.22
			S142.29,167.54,106.87,167.54z M106.87,39.6c-35.14,0-63.72,28.59-63.72,63.72s28.59,63.72,63.72,63.72s63.72-28.59,63.72-63.72
			S142.01,39.6,106.87,39.6z M106.87,160.44c-31.49,0-57.12-25.62-57.12-57.12S75.38,46.2,106.87,46.2s57.12,25.62,57.12,57.12
			S138.37,160.44,106.87,160.44z M106.87,46.7c-31.22,0-56.62,25.4-56.62,56.62s25.4,56.62,56.62,56.62s56.62-25.4,56.62-56.62
			S138.09,46.7,106.87,46.7z"/>
	</g>
	<g>
		<linearGradient id="SVGID_3_" gradientUnits="userSpaceOnUse" x1="1408.3231" y1="181.7922" x2="-82.6576" y2="91.8897">
			<stop  offset="0" style="stop-color:#F29127"/>
			<stop  offset="0.2054" style="stop-color:#EC8426"/>
			<stop  offset="0.6036" style="stop-color:#DE6626"/>
			<stop  offset="1" style="stop-color:#D13D27"/>
		</linearGradient>
		<path class="st2" d="M106.87,151.41c26.56,0,48.09-21.53,48.09-48.09s-21.53-48.09-48.09-48.09s-48.09,21.53-48.09,48.09l0,0
			C58.83,129.86,80.33,151.37,106.87,151.41z M106.87,62.34c22.63,0,40.98,18.35,40.98,40.98s-18.35,40.98-40.98,40.98
			S65.9,125.95,65.9,103.32C65.91,80.7,84.25,62.36,106.87,62.34z"/>
		<linearGradient id="SVGID_4_" gradientUnits="userSpaceOnUse" x1="1408.3231" y1="181.7919" x2="-82.6576" y2="91.8893">
			<stop  offset="0" style="stop-color:#F29127"/>
			<stop  offset="0.2054" style="stop-color:#EC8426"/>
			<stop  offset="0.6036" style="stop-color:#DE6626"/>
			<stop  offset="1" style="stop-color:#D13D27"/>
		</linearGradient>
		<path class="st3" d="M106.87,151.66L106.87,151.66c-26.61-0.04-48.3-21.72-48.34-48.34c0-26.65,21.68-48.34,48.34-48.34
			s48.34,21.68,48.34,48.34S133.53,151.66,106.87,151.66z M106.87,55.48c-26.38,0-47.84,21.46-47.84,47.84
			c0.04,26.34,21.5,47.8,47.84,47.84c26.38,0,47.84-21.46,47.84-47.84C154.71,76.94,133.25,55.48,106.87,55.48z M106.87,144.55
			c-22.73,0-41.23-18.5-41.23-41.23c0.02-22.71,18.51-41.21,41.23-41.23l0,0c22.73,0,41.23,18.5,41.23,41.23
			C148.1,126.05,129.61,144.55,106.87,144.55z M106.87,62.59c-22.44,0.02-40.71,18.29-40.73,40.73c0,22.46,18.27,40.73,40.73,40.73
			s40.73-18.27,40.73-40.73S129.33,62.59,106.87,62.59L106.87,62.59z"/>
	</g>
	<g>
		<linearGradient id="SVGID_5_" gradientUnits="userSpaceOnUse" x1="1408.8685" y1="172.7465" x2="-82.1122" y2="82.844">
			<stop  offset="0" style="stop-color:#F29127"/>
			<stop  offset="0.2054" style="stop-color:#EC8426"/>
			<stop  offset="0.6036" style="stop-color:#DE6626"/>
			<stop  offset="1" style="stop-color:#D13D27"/>
		</linearGradient>
		<path class="st4" d="M14.47,76.02v84.16c0,1.96,1.59,3.55,3.55,3.55h14.22c1.96,0,3.55-1.59,3.55-3.55V76.02
			C44.47,71.91,50,63.17,50.01,53.56c0-13.4-10.66-39.1-24.88-39.1S0.25,40.16,0.25,53.56C0.26,63.17,5.79,71.91,14.47,76.02z
			 M28.68,78.44v78.19h-7.11V78.44H28.68z M25.13,21.57c8.64,0,17.77,20.79,17.77,31.99c0,9.81-7.96,17.77-17.77,17.77
			S7.36,63.38,7.36,53.56C7.36,42.37,16.49,21.57,25.13,21.57z"/>
		<linearGradient id="SVGID_6_" gradientUnits="userSpaceOnUse" x1="1408.8685" y1="172.7464" x2="-82.1122" y2="82.8438">
			<stop  offset="0" style="stop-color:#F29127"/>
			<stop  offset="0.2054" style="stop-color:#EC8426"/>
			<stop  offset="0.6036" style="stop-color:#DE6626"/>
			<stop  offset="1" style="stop-color:#D13D27"/>
		</linearGradient>
		<path class="st5" d="M32.24,163.99H18.02c-2.1,0-3.8-1.71-3.8-3.8v-84C5.58,72.02,0.01,63.16,0,53.56
			c0-13.47,10.61-39.35,25.13-39.35c8.66,0,14.99,9.18,17.99,14.65c4.27,7.78,7.14,17.71,7.14,24.69
			c-0.01,9.59-5.58,18.46-14.22,22.62v84C36.04,162.28,34.33,163.99,32.24,163.99z M25.13,14.72c-8.4,0-14.6,9.02-17.55,14.39
			C3.34,36.83,0.5,46.65,0.5,53.56c0.01,9.46,5.53,18.18,14.07,22.24l0.14,0.07v84.32c0,1.82,1.48,3.3,3.3,3.3h14.22
			c1.82,0,3.3-1.48,3.3-3.3V75.87l0.14-0.07c8.54-4.05,14.07-12.78,14.07-22.24c0-6.91-2.84-16.74-7.08-24.45
			C39.73,23.73,33.53,14.72,25.13,14.72z M28.93,156.88h-7.61V78.19h7.61V156.88z M21.83,156.38h6.61V78.69h-6.61V156.38z
			 M25.13,71.58c-9.94,0-18.02-8.08-18.02-18.02c0-11.27,9.26-32.24,18.02-32.24s18.02,20.96,18.02,32.24
			C43.15,63.5,35.07,71.58,25.13,71.58z M25.13,21.83c-3.79,0-8.12,4.25-11.9,11.66c-3.41,6.7-5.62,14.58-5.62,20.08
			c0,9.66,7.86,17.52,17.52,17.52s17.52-7.86,17.52-17.52C42.65,42.46,33.64,21.83,25.13,21.83z"/>
	</g>
	<g>
		<linearGradient id="SVGID_7_" gradientUnits="userSpaceOnUse" x1="1409.4866" y1="162.498" x2="-81.4943" y2="72.5955">
			<stop  offset="0" style="stop-color:#F29127"/>
			<stop  offset="0.2054" style="stop-color:#EC8426"/>
			<stop  offset="0.6036" style="stop-color:#DE6626"/>
			<stop  offset="1" style="stop-color:#D13D27"/>
		</linearGradient>
		<path class="st6" d="M202.84,14.47c-2.63,0.02-5.16,1-7.11,2.77c-4.05-3.62-10.17-3.62-14.22,0c-1.95-1.77-4.48-2.76-7.11-2.77
			c-5.89,0-10.66,4.77-10.66,10.66v31.99c0,8.45,5.94,15.73,14.22,17.42v85.65c0,1.96,1.59,3.55,3.55,3.55h14.22
			c1.96,0,3.55-1.59,3.55-3.55V74.53c8.28-1.69,14.22-8.97,14.22-17.42V25.13C213.5,19.24,208.72,14.47,202.84,14.47z
			 M192.17,156.63h-7.11V74.89h7.11V156.63z M206.39,57.12c0,5.89-4.77,10.66-10.66,10.66h-14.22c-5.89,0-10.66-4.77-10.66-10.66
			V25.13c0-1.96,1.59-3.55,3.55-3.55s3.55,1.59,3.55,3.55v31.99h7.11V25.13c0-1.96,1.59-3.55,3.55-3.55s3.55,1.59,3.55,3.55v31.99
			h7.11V25.13c0-1.96,1.59-3.55,3.55-3.55s3.55,1.59,3.55,3.55V57.12z"/>
		<linearGradient id="SVGID_8_" gradientUnits="userSpaceOnUse" x1="1409.4866" y1="162.498" x2="-81.4943" y2="72.5955">
			<stop  offset="0" style="stop-color:#F29127"/>
			<stop  offset="0.2054" style="stop-color:#EC8426"/>
			<stop  offset="0.6036" style="stop-color:#DE6626"/>
			<stop  offset="1" style="stop-color:#D13D27"/>
		</linearGradient>
		<path class="st7" d="M195.73,163.99h-14.22c-2.1,0-3.8-1.71-3.8-3.8V74.73c-8.25-1.78-14.22-9.16-14.22-17.62V25.13
			c0-6.02,4.9-10.91,10.91-10.91c2.62,0.02,5.14,0.97,7.11,2.69c4.09-3.51,10.12-3.51,14.21,0c1.97-1.72,4.49-2.67,7.11-2.69h0
			c6.02,0,10.91,4.9,10.91,10.91v31.99c0,8.46-5.96,15.84-14.22,17.62v85.45C199.53,162.28,197.83,163.99,195.73,163.99z
			 M174.4,14.72c-5.74,0-10.41,4.67-10.41,10.41v31.99c0,8.29,5.89,15.51,14.02,17.17l0.2,0.04v85.86c0,1.82,1.48,3.3,3.3,3.3h14.22
			c1.82,0,3.3-1.48,3.3-3.3V74.33l0.2-0.04c8.12-1.66,14.02-8.88,14.02-17.17V25.13c0-5.74-4.67-10.41-10.41-10.41
			c-2.57,0.02-5.04,0.98-6.94,2.71l-0.17,0.15l-0.17-0.15c-3.96-3.54-9.93-3.54-13.88,0l-0.17,0.15l-0.17-0.15
			C179.44,15.69,176.97,14.73,174.4,14.72z M192.42,156.88h-7.61V74.64h7.61V156.88z M185.32,156.38h6.61V75.14h-6.61V156.38z
			 M195.73,68.03h-14.22c-6.02,0-10.91-4.9-10.91-10.91V25.13c0-2.1,1.71-3.8,3.8-3.8s3.8,1.71,3.8,3.8v31.74h6.61V25.13
			c0-2.1,1.71-3.8,3.8-3.8s3.8,1.71,3.8,3.8v31.74h6.61V25.13c0-2.1,1.71-3.8,3.8-3.8s3.8,1.71,3.8,3.8v31.99
			C206.64,63.13,201.74,68.03,195.73,68.03z M174.4,21.83c-1.82,0-3.3,1.48-3.3,3.3v31.99c0,5.74,4.67,10.41,10.41,10.41h14.22
			c5.74,0,10.41-4.67,10.41-10.41V25.13c0-1.82-1.48-3.3-3.3-3.3c-1.82,0-3.3,1.48-3.3,3.3v32.24h-7.61V25.13
			c0-1.82-1.48-3.3-3.3-3.3c-1.82,0-3.3,1.48-3.3,3.3v32.24h-7.61V25.13C177.71,23.31,176.22,21.83,174.4,21.83z"/>
	</g>
	<g>
		<linearGradient id="SVGID_9_" gradientUnits="userSpaceOnUse" x1="1413.3318" y1="98.7258" x2="-77.6489" y2="8.8233">
			<stop  offset="0" style="stop-color:#F29127"/>
			<stop  offset="0.2054" style="stop-color:#EC8426"/>
			<stop  offset="0.6036" style="stop-color:#DE6626"/>
			<stop  offset="1" style="stop-color:#D13D27"/>
		</linearGradient>
		<path class="st8" d="M60.67,21.57c5.89,0,10.66,4.77,10.66,10.66c0,1.96,1.59,3.55,3.55,3.55s3.55-1.59,3.55-3.55
			c0-5.89,4.77-10.66,10.66-10.66c1.96,0,3.55-1.59,3.55-3.55s-1.59-3.55-3.55-3.55c-5.89,0-10.66-4.77-10.66-10.66
			c0-1.96-1.59-3.55-3.55-3.55s-3.55,1.59-3.55,3.55c0,5.89-4.77,10.66-10.66,10.66c-1.96,0-3.55,1.59-3.55,3.55
			S58.71,21.57,60.67,21.57z M74.89,14.47c1.01,1.35,2.21,2.54,3.55,3.55c-1.35,1.01-2.54,2.21-3.55,3.55
			c-1.01-1.35-2.21-2.54-3.55-3.55C72.68,17.01,73.88,15.81,74.89,14.47z"/>
		<linearGradient id="SVGID_10_" gradientUnits="userSpaceOnUse" x1="1413.3318" y1="98.726" x2="-77.649" y2="8.8235">
			<stop  offset="0" style="stop-color:#F29127"/>
			<stop  offset="0.2054" style="stop-color:#EC8426"/>
			<stop  offset="0.6036" style="stop-color:#DE6626"/>
			<stop  offset="1" style="stop-color:#D13D27"/>
		</linearGradient>
		<path class="st9" d="M74.89,36.04c-2.1,0-3.8-1.71-3.8-3.8c0-5.74-4.67-10.41-10.41-10.41c-2.1,0-3.8-1.71-3.8-3.8
			s1.71-3.8,3.8-3.8c5.74,0,10.41-4.67,10.41-10.41c0-2.1,1.71-3.8,3.8-3.8s3.8,1.71,3.8,3.8c0,5.74,4.67,10.41,10.41,10.41
			c2.1,0,3.8,1.71,3.8,3.8s-1.71,3.8-3.8,3.8c-5.74,0-10.41,4.67-10.41,10.41C78.69,34.33,76.98,36.04,74.89,36.04z M74.89,0.5
			c-1.82,0-3.3,1.48-3.3,3.3c0,6.02-4.9,10.91-10.91,10.91c-1.82,0-3.3,1.48-3.3,3.3c0,1.82,1.48,3.3,3.3,3.3
			c6.02,0,10.91,4.9,10.91,10.91c0,1.82,1.48,3.3,3.3,3.3c1.82,0,3.3-1.48,3.3-3.3c0-6.02,4.9-10.91,10.91-10.91
			c1.82,0,3.3-1.48,3.3-3.3c0-1.82-1.48-3.3-3.3-3.3c-6.02,0-10.91-4.9-10.91-10.91C78.19,1.98,76.71,0.5,74.89,0.5z M74.89,21.99
			l-0.2-0.27c-0.99-1.33-2.17-2.51-3.5-3.5l-0.27-0.2l0.27-0.2c1.33-1,2.51-2.17,3.5-3.5l0.2-0.27l0.2,0.27
			c1,1.33,2.18,2.51,3.5,3.5l0.27,0.2l-0.27,0.2c-1.33,1-2.51,2.18-3.5,3.5L74.89,21.99z M71.74,18.02
			c1.18,0.92,2.23,1.97,3.14,3.14c0.91-1.17,1.97-2.23,3.14-3.14c-1.17-0.91-2.23-1.97-3.14-3.14
			C73.97,16.05,72.92,17.11,71.74,18.02z"/>
	</g>
</g>
</svg>
