<?xml version="1.0" encoding="utf-8"?>
<!-- Generator: Adobe Illustrator 24.1.2, SVG Export Plug-In . SVG Version: 6.00 Build 0)  -->
<svg version="1.1" id="Capa_1" xmlns="http://www.w3.org/2000/svg" xmlns:xlink="http://www.w3.org/1999/xlink" x="0px" y="0px"
	 viewBox="0 0 167.7 167.7" style="enable-background:new 0 0 167.7 167.7;" xml:space="preserve">
<style type="text/css">
	.st0{fill:#FFFFFF;}
</style>
<g>
	<path class="st0" d="M84.5,22.3C50,22.3,22,50.3,22,84.8c0,31,22.5,56.6,52.1,61.6V97.9H59V80.4h15.1V67.6
		c0-14.9,9.1-23.1,22.5-23.1c6.4,0,11.9,0.5,13.5,0.7v15.6l-9.2,0c-7.2,0-8.6,3.4-8.6,8.5v11.1h17.3l-2.3,17.5h-15v48.9
		c30.9-3.8,54.9-30.1,54.9-62C147,50.3,119,22.3,84.5,22.3z"/>
</g>
</svg>
