<?xml version="1.0" encoding="utf-8"?>
<!-- Generator: Adobe Illustrator 25.0.1, SVG Export Plug-In . SVG Version: 6.00 Build 0)  -->
<svg version="1.1" id="Layer_1" xmlns="http://www.w3.org/2000/svg" xmlns:xlink="http://www.w3.org/1999/xlink" x="0px" y="0px"
	 viewBox="0 0 67.9 70" style="enable-background:new 0 0 67.9 70;" xml:space="preserve">
<style type="text/css">
	.st0{fill:#FFFFFF;}
</style>
<g>
	<path class="st0" d="M22.8,57.9c0-1.8,0-3.6,0-5.5c-3.7,0-7.4,0-11.1,0c0-0.2,0-0.4,0-0.6c0-10.3,0-20.7,0-31
		c0-0.3,0.1-0.6,0.1-0.9c0.8-2.5,1.7-5,2.5-7.5c0.1-0.3,0.2-0.4,0.6-0.4c13.6,0,27.2,0,40.9,0c0.1,0,0.3,0,0.5,0c0,0.2,0,0.4,0,0.6
		c0,8.9,0,17.8,0,26.7c0,0.4-0.1,0.6-0.4,0.9C51.9,44.1,48,48.1,44,52c-0.3,0.3-0.5,0.4-0.9,0.4c-2.4,0-4.8,0-7.2,0
		c-0.5,0-0.8,0.1-1.1,0.5c-1.6,1.6-3.2,3.2-4.8,4.8c-0.2,0.2-0.4,0.3-0.6,0.3c-2.1,0-4.3,0-6.4,0C23,58,22.9,57.9,22.8,57.9z
		 M18.6,16.1c0,9.8,0,19.5,0,29.3c3.3,0,6.5,0,9.8,0c0,1.9,0,3.7,0,5.6c0.2-0.1,0.2-0.2,0.3-0.3c1.6-1.6,3.3-3.3,4.9-4.9
		c0.2-0.2,0.5-0.3,0.8-0.3c3.4,0,6.8,0,10.3,0c0.3,0,0.6-0.1,0.7-0.3c2.1-2.1,4.2-4.2,6.4-6.3c0.2-0.2,0.3-0.5,0.3-0.8
		c0-7.1,0-14.3,0-21.4c0-0.2,0-0.3,0-0.5C40.9,16.1,29.7,16.1,18.6,16.1z"/>
	<path class="st0" d="M33.9,24.6c0,4.1,0,8.3,0,12.4c-1.4,0-2.7,0-4.1,0c0-4.1,0-8.2,0-12.4C31.1,24.6,32.5,24.6,33.9,24.6z"/>
	<path class="st0" d="M45,37c-1.4,0-2.7,0-4.1,0c0-4.1,0-8.3,0-12.4c1.3,0,2.7,0,4.1,0C45,28.7,45,32.8,45,37z"/>
</g>
</svg>
