<?xml version="1.0" encoding="utf-8"?>
<!-- Generator: Adobe Illustrator 24.1.2, SVG Export Plug-In . SVG Version: 6.00 Build 0)  -->
<svg version="1.1"
	 id="Layer_1" inkscape:version="0.91 r13725" sodipodi:docname="YouTube_light_icon (2017).svg" xmlns:cc="http://creativecommons.org/ns#" xmlns:dc="http://purl.org/dc/elements/1.1/" xmlns:inkscape="http://www.inkscape.org/namespaces/inkscape" xmlns:rdf="http://www.w3.org/1999/02/22-rdf-syntax-ns#" xmlns:sodipodi="http://sodipodi.sourceforge.net/DTD/sodipodi-0.dtd" xmlns:svg="http://www.w3.org/2000/svg"
	 xmlns="http://www.w3.org/2000/svg" xmlns:xlink="http://www.w3.org/1999/xlink" x="0px" y="0px" viewBox="0 0 71.4 71.4"
	 style="enable-background:new 0 0 71.4 71.4;" xml:space="preserve">
<style type="text/css">
	.st0{fill:#FFFFFF;}
</style>
<sodipodi:namedview  bordercolor="#666666" borderopacity="1" fit-margin-bottom="0" fit-margin-left="0" fit-margin-right="0" fit-margin-top="0" gridtolerance="10" guidetolerance="10" id="namedview29" inkscape:current-layer="Layer_1" inkscape:cx="30.091613" inkscape:cy="15.29613" inkscape:pageopacity="0" inkscape:pageshadow="2" inkscape:window-height="715" inkscape:window-maximized="1" inkscape:window-width="1366" inkscape:window-x="-8" inkscape:window-y="-8" inkscape:zoom="5.4355702" objecttolerance="10" pagecolor="#ffffff" showgrid="false">
	</sodipodi:namedview>
<g id="g5" transform="scale(0.58823529,0.58823529)">
	<path id="path7" class="st0" d="M60.3,23.3c0,0-33.5,0-41.9,2.2c-4.5,1.2-8.2,4.9-9.4,9.5c-2.2,8.4-2.2,25.8-2.2,25.8
		s0,17.5,2.2,25.8c1.2,4.6,4.9,8.2,9.4,9.4c8.5,2.3,41.9,2.3,41.9,2.3s33.5,0,41.9-2.2c4.6-1.2,8.2-4.9,9.4-9.4
		c2.2-8.4,2.2-25.8,2.2-25.8s0.1-17.5-2.2-25.8c-1.2-4.6-4.9-8.2-9.4-9.4C93.9,23.3,60.3,23.3,60.3,23.3z M49.7,44.7l27.9,16.1
		L49.7,76.8V44.7z"/>
</g>
</svg>
