<!-- Generator: Adobe Illustrator 25.1.0, SVG Export Plug-In  -->
<svg version="1.1" xmlns="http://www.w3.org/2000/svg" xmlns:xlink="http://www.w3.org/1999/xlink" x="0px" y="0px"
	 width="167.48px" height="167.13px" viewBox="0 0 167.48 167.13"
	 style="overflow:visible;enable-background:new 0 0 167.48 167.13;" xml:space="preserve">
<style type="text/css">
	.st0{fill:url(#SVGID_1_);}
	.st1{fill:url(#SVGID_2_);}
	.st2{fill:url(#SVGID_3_);}
	.st3{fill:url(#SVGID_4_);}
	.st4{fill:url(#SVGID_5_);}
	.st5{fill:url(#SVGID_6_);}
	.st6{fill:url(#SVGID_7_);}
	.st7{fill:url(#SVGID_8_);}
	.st8{fill:url(#SVGID_9_);}
	.st9{fill:url(#SVGID_10_);}
	.st10{fill:url(#SVGID_11_);}
	.st11{fill:url(#SVGID_12_);}
	.st12{fill:url(#SVGID_13_);}
	.st13{fill:url(#SVGID_14_);}
	.st14{fill:url(#SVGID_15_);}
	.st15{fill:url(#SVGID_16_);}
	.st16{fill:url(#SVGID_17_);}
	.st17{fill:url(#SVGID_18_);}
	.st18{fill:url(#SVGID_19_);}
	.st19{fill:url(#SVGID_20_);}
	.st20{fill:url(#SVGID_21_);}
	.st21{fill:url(#SVGID_22_);}
	.st22{fill:url(#SVGID_23_);}
	.st23{fill:url(#SVGID_24_);}
	.st24{fill:url(#SVGID_25_);}
	.st25{fill:url(#SVGID_26_);}
	.st26{fill:url(#SVGID_27_);}
	.st27{fill:url(#SVGID_28_);}
	.st28{fill:url(#SVGID_29_);}
	.st29{fill:url(#SVGID_30_);}
	.st30{fill:url(#SVGID_31_);}
	.st31{fill:url(#SVGID_32_);}
	.st32{fill:url(#SVGID_33_);}
	.st33{fill:url(#SVGID_34_);}
	.st34{fill:url(#SVGID_35_);}
	.st35{fill:url(#SVGID_36_);}
</style>
<defs>
</defs>
<g>
	<g>
		<linearGradient id="SVGID_1_" gradientUnits="userSpaceOnUse" x1="996.9891" y1="138.8691" x2="-493.9917" y2="48.9666">
			<stop  offset="0" style="stop-color:#F29127"/>
			<stop  offset="0.2054" style="stop-color:#EC8426"/>
			<stop  offset="0.6036" style="stop-color:#DE6626"/>
			<stop  offset="1" style="stop-color:#D13D27"/>
		</linearGradient>
		<path class="st0" d="M163.63,159.81h-4.38V36.78c0-1.91-1.56-3.47-3.47-3.47h-6.29v-9.52h6.29c1.91,0,3.47-1.56,3.47-3.47V3.85
			c0-1.91-1.56-3.47-3.47-3.47H11.7c-1.91,0-3.47,1.56-3.47,3.47v16.46c0,1.91,1.56,3.47,3.47,3.47h6.29v9.52H11.7
			c-1.91,0-3.47,1.56-3.47,3.47v123.03H3.85c-1.91,0-3.47,1.56-3.47,3.47c0,1.91,1.56,3.47,3.47,3.47h7.85h53.77l0,0h36.58l0,0
			h53.74h7.85c1.91,0,3.47-1.56,3.47-3.47C167.1,161.37,165.54,159.81,163.63,159.81z M15.17,16.84V7.32h137.13v9.52h-6.29H21.46
			H15.17z M142.55,23.79v9.52H24.93v-9.52H142.55z M98.57,159.81H68.94V124.8c0-8.16,6.63-14.8,14.8-14.8s14.83,6.63,14.83,14.8
			V159.81z M152.31,159.81h-46.79V124.8c0-11.98-9.76-21.74-21.78-21.74c-11.98,0-21.74,9.76-21.74,21.74v35.01H15.17V40.25h6.29
			h124.56h6.29V159.81z"/>
		<linearGradient id="SVGID_2_" gradientUnits="userSpaceOnUse" x1="996.9891" y1="138.8689" x2="-493.9917" y2="48.9663">
			<stop  offset="0" style="stop-color:#F29127"/>
			<stop  offset="0.2054" style="stop-color:#EC8426"/>
			<stop  offset="0.6036" style="stop-color:#DE6626"/>
			<stop  offset="1" style="stop-color:#D13D27"/>
		</linearGradient>
		<path class="st1" d="M163.63,167.13H3.85c-2.12,0-3.85-1.73-3.85-3.85s1.73-3.85,3.85-3.85h4V36.78c0-2.12,1.73-3.85,3.85-3.85
			h5.91v-8.77H11.7c-2.12,0-3.85-1.73-3.85-3.85V3.85C7.85,1.73,9.58,0,11.7,0h144.08c2.12,0,3.85,1.73,3.85,3.85v16.46
			c0,2.12-1.73,3.85-3.85,3.85h-5.91v8.77h5.91c2.12,0,3.85,1.73,3.85,3.85v122.66h4c2.12,0,3.85,1.73,3.85,3.85
			S165.75,167.13,163.63,167.13z M3.85,160.18c-1.71,0-3.1,1.39-3.1,3.1s1.39,3.1,3.1,3.1h159.78c1.71,0,3.1-1.39,3.1-3.1
			s-1.39-3.1-3.1-3.1h-4.75V36.78c0-1.71-1.39-3.1-3.1-3.1h-6.66V23.41h6.66c1.71,0,3.1-1.39,3.1-3.1V3.85c0-1.71-1.39-3.1-3.1-3.1
			H11.7c-1.71,0-3.1,1.39-3.1,3.1v16.46c0,1.71,1.39,3.1,3.1,3.1h6.66v10.27H11.7c-1.71,0-3.1,1.39-3.1,3.1v123.41H3.85z
			 M152.68,160.18h-47.54V124.8c0-11.78-9.6-21.37-21.4-21.37c-11.78,0-21.37,9.59-21.37,21.37v35.39H14.8V39.88h137.88V160.18z
			 M105.89,159.43h46.04V40.63H15.55v118.81h46.07V124.8c0-12.2,9.92-22.12,22.12-22.12c12.22,0,22.15,9.92,22.15,22.12V159.43z
			 M98.95,160.18H68.57V124.8c0-8.37,6.81-15.17,15.17-15.17c8.38,0,15.21,6.81,15.21,15.17V160.18z M69.32,159.43H98.2V124.8
			c0-7.95-6.49-14.42-14.46-14.42c-7.95,0-14.42,6.47-14.42,14.42V159.43z M142.92,33.68H24.56V23.41h118.36V33.68z M25.31,32.93
			h116.86v-8.77H25.31V32.93z M152.68,17.21H14.8V6.95h137.88V17.21z M15.55,16.46h136.38V7.7H15.55V16.46z"/>
	</g>
	<g>
		<linearGradient id="SVGID_3_" gradientUnits="userSpaceOnUse" x1="998.2593" y1="117.8039" x2="-492.7215" y2="27.9014">
			<stop  offset="0" style="stop-color:#F29127"/>
			<stop  offset="0.2054" style="stop-color:#EC8426"/>
			<stop  offset="0.6036" style="stop-color:#DE6626"/>
			<stop  offset="1" style="stop-color:#D13D27"/>
		</linearGradient>
		<path class="st2" d="M40.22,48.87H25.7c-1.91,0-3.47,1.56-3.47,3.47v14.52c0,1.91,1.56,3.47,3.47,3.47s3.47-1.56,3.47-3.47V55.81
			h11.05c1.91,0,3.47-1.56,3.47-3.47S42.13,48.87,40.22,48.87z"/>
		<linearGradient id="SVGID_4_" gradientUnits="userSpaceOnUse" x1="998.2593" y1="117.804" x2="-492.7215" y2="27.9015">
			<stop  offset="0" style="stop-color:#F29127"/>
			<stop  offset="0.2054" style="stop-color:#EC8426"/>
			<stop  offset="0.6036" style="stop-color:#DE6626"/>
			<stop  offset="1" style="stop-color:#D13D27"/>
		</linearGradient>
		<path class="st3" d="M25.7,70.71c-2.12,0-3.85-1.73-3.85-3.85V52.34c0-2.12,1.73-3.85,3.85-3.85h14.52c2.12,0,3.85,1.73,3.85,3.85
			s-1.73,3.85-3.85,3.85H29.55v10.67C29.55,68.98,27.82,70.71,25.7,70.71z M25.7,49.24c-1.71,0-3.1,1.39-3.1,3.1v14.52
			c0,1.71,1.39,3.1,3.1,3.1s3.1-1.39,3.1-3.1V55.44h11.42c1.71,0,3.1-1.39,3.1-3.1s-1.39-3.1-3.1-3.1H25.7z"/>
	</g>
	<g>
		<linearGradient id="SVGID_5_" gradientUnits="userSpaceOnUse" x1="998.382" y1="115.7693" x2="-492.5988" y2="25.8667">
			<stop  offset="0" style="stop-color:#F29127"/>
			<stop  offset="0.2054" style="stop-color:#EC8426"/>
			<stop  offset="0.6036" style="stop-color:#DE6626"/>
			<stop  offset="1" style="stop-color:#D13D27"/>
		</linearGradient>
		<path class="st4" d="M74.08,48.87H59.56c-1.91,0-3.47,1.56-3.47,3.47v14.52c0,1.91,1.56,3.47,3.47,3.47s3.47-1.56,3.47-3.47V55.81
			h11.05c1.91,0,3.47-1.56,3.47-3.47S75.99,48.87,74.08,48.87z"/>
		<linearGradient id="SVGID_6_" gradientUnits="userSpaceOnUse" x1="998.382" y1="115.7694" x2="-492.5988" y2="25.8668">
			<stop  offset="0" style="stop-color:#F29127"/>
			<stop  offset="0.2054" style="stop-color:#EC8426"/>
			<stop  offset="0.6036" style="stop-color:#DE6626"/>
			<stop  offset="1" style="stop-color:#D13D27"/>
		</linearGradient>
		<path class="st5" d="M59.56,70.71c-2.12,0-3.85-1.73-3.85-3.85V52.34c0-2.12,1.73-3.85,3.85-3.85h14.52
			c2.12,0,3.85,1.73,3.85,3.85s-1.73,3.85-3.85,3.85H63.41v10.67C63.41,68.98,61.69,70.71,59.56,70.71z M59.56,49.24
			c-1.71,0-3.1,1.39-3.1,3.1v14.52c0,1.71,1.39,3.1,3.1,3.1s3.1-1.39,3.1-3.1V55.44h11.42c1.71,0,3.1-1.39,3.1-3.1
			s-1.39-3.1-3.1-3.1H59.56z"/>
	</g>
	<g>
		<linearGradient id="SVGID_7_" gradientUnits="userSpaceOnUse" x1="998.5046" y1="113.7346" x2="-492.4762" y2="23.8321">
			<stop  offset="0" style="stop-color:#F29127"/>
			<stop  offset="0.2054" style="stop-color:#EC8426"/>
			<stop  offset="0.6036" style="stop-color:#DE6626"/>
			<stop  offset="1" style="stop-color:#D13D27"/>
		</linearGradient>
		<path class="st6" d="M107.95,48.87H93.43c-1.91,0-3.47,1.56-3.47,3.47v14.52c0,1.91,1.56,3.47,3.47,3.47s3.47-1.56,3.47-3.47
			V55.81h11.05c1.91,0,3.47-1.56,3.47-3.47S109.86,48.87,107.95,48.87z"/>
		<linearGradient id="SVGID_8_" gradientUnits="userSpaceOnUse" x1="998.5046" y1="113.7347" x2="-492.4762" y2="23.8322">
			<stop  offset="0" style="stop-color:#F29127"/>
			<stop  offset="0.2054" style="stop-color:#EC8426"/>
			<stop  offset="0.6036" style="stop-color:#DE6626"/>
			<stop  offset="1" style="stop-color:#D13D27"/>
		</linearGradient>
		<path class="st7" d="M93.43,70.71c-2.12,0-3.85-1.73-3.85-3.85V52.34c0-2.12,1.73-3.85,3.85-3.85h14.52
			c2.12,0,3.85,1.73,3.85,3.85s-1.73,3.85-3.85,3.85H97.28v10.67C97.28,68.98,95.55,70.71,93.43,70.71z M93.43,49.24
			c-1.71,0-3.1,1.39-3.1,3.1v14.52c0,1.71,1.39,3.1,3.1,3.1s3.1-1.39,3.1-3.1V55.44h11.42c1.71,0,3.1-1.39,3.1-3.1
			s-1.39-3.1-3.1-3.1H93.43z"/>
	</g>
	<g>
		<linearGradient id="SVGID_9_" gradientUnits="userSpaceOnUse" x1="998.6272" y1="111.7019" x2="-492.3536" y2="21.7994">
			<stop  offset="0" style="stop-color:#F29127"/>
			<stop  offset="0.2054" style="stop-color:#EC8426"/>
			<stop  offset="0.6036" style="stop-color:#DE6626"/>
			<stop  offset="1" style="stop-color:#D13D27"/>
		</linearGradient>
		<path class="st8" d="M141.78,48.87h-14.52c-1.91,0-3.47,1.56-3.47,3.47v14.52c0,1.91,1.56,3.47,3.47,3.47s3.47-1.56,3.47-3.47
			V55.81h11.05c1.91,0,3.47-1.56,3.47-3.47S143.73,48.87,141.78,48.87z"/>
		<linearGradient id="SVGID_10_" gradientUnits="userSpaceOnUse" x1="998.6272" y1="111.7021" x2="-492.3536" y2="21.7996">
			<stop  offset="0" style="stop-color:#F29127"/>
			<stop  offset="0.2054" style="stop-color:#EC8426"/>
			<stop  offset="0.6036" style="stop-color:#DE6626"/>
			<stop  offset="1" style="stop-color:#D13D27"/>
		</linearGradient>
		<path class="st9" d="M127.26,70.71c-2.12,0-3.85-1.73-3.85-3.85V52.34c0-2.12,1.73-3.85,3.85-3.85h14.52
			c2.12,0,3.85,1.73,3.85,3.85s-1.73,3.85-3.85,3.85h-10.67v10.67C131.11,68.98,129.38,70.71,127.26,70.71z M127.26,49.24
			c-1.71,0-3.1,1.39-3.1,3.1v14.52c0,1.71,1.39,3.1,3.1,3.1c1.71,0,3.1-1.39,3.1-3.1V55.44h11.42c1.71,0,3.1-1.39,3.1-3.1
			s-1.39-3.1-3.1-3.1H127.26z"/>
	</g>
	<g>
		<linearGradient id="SVGID_11_" gradientUnits="userSpaceOnUse" x1="996.6754" y1="144.0723" x2="-494.3055" y2="54.1698">
			<stop  offset="0" style="stop-color:#F29127"/>
			<stop  offset="0.2054" style="stop-color:#EC8426"/>
			<stop  offset="0.6036" style="stop-color:#DE6626"/>
			<stop  offset="1" style="stop-color:#D13D27"/>
		</linearGradient>
		<path class="st10" d="M40.22,75.23H25.7c-1.91,0-3.47,1.56-3.47,3.47v14.52c0,1.91,1.56,3.47,3.47,3.47s3.47-1.56,3.47-3.47V82.18
			h11.05c1.91,0,3.47-1.56,3.47-3.47S42.13,75.23,40.22,75.23z"/>
		<linearGradient id="SVGID_12_" gradientUnits="userSpaceOnUse" x1="996.6754" y1="144.0723" x2="-494.3055" y2="54.1698">
			<stop  offset="0" style="stop-color:#F29127"/>
			<stop  offset="0.2054" style="stop-color:#EC8426"/>
			<stop  offset="0.6036" style="stop-color:#DE6626"/>
			<stop  offset="1" style="stop-color:#D13D27"/>
		</linearGradient>
		<path class="st11" d="M25.7,97.07c-2.12,0-3.85-1.73-3.85-3.85V78.7c0-2.12,1.73-3.85,3.85-3.85h14.52c2.12,0,3.85,1.73,3.85,3.85
			s-1.73,3.85-3.85,3.85H29.55v10.67C29.55,95.34,27.82,97.07,25.7,97.07z M25.7,75.6c-1.71,0-3.1,1.39-3.1,3.1v14.52
			c0,1.71,1.39,3.1,3.1,3.1s3.1-1.39,3.1-3.1V81.8h11.42c1.71,0,3.1-1.39,3.1-3.1s-1.39-3.1-3.1-3.1H25.7z"/>
	</g>
	<g>
		<linearGradient id="SVGID_13_" gradientUnits="userSpaceOnUse" x1="996.798" y1="142.0376" x2="-494.1828" y2="52.1351">
			<stop  offset="0" style="stop-color:#F29127"/>
			<stop  offset="0.2054" style="stop-color:#EC8426"/>
			<stop  offset="0.6036" style="stop-color:#DE6626"/>
			<stop  offset="1" style="stop-color:#D13D27"/>
		</linearGradient>
		<path class="st12" d="M74.08,75.23H59.56c-1.91,0-3.47,1.56-3.47,3.47v14.52c0,1.91,1.56,3.47,3.47,3.47s3.47-1.56,3.47-3.47
			V82.18h11.05c1.91,0,3.47-1.56,3.47-3.47S75.99,75.23,74.08,75.23z"/>
		<linearGradient id="SVGID_14_" gradientUnits="userSpaceOnUse" x1="996.798" y1="142.0376" x2="-494.1828" y2="52.1351">
			<stop  offset="0" style="stop-color:#F29127"/>
			<stop  offset="0.2054" style="stop-color:#EC8426"/>
			<stop  offset="0.6036" style="stop-color:#DE6626"/>
			<stop  offset="1" style="stop-color:#D13D27"/>
		</linearGradient>
		<path class="st13" d="M59.56,97.07c-2.12,0-3.85-1.73-3.85-3.85V78.7c0-2.12,1.73-3.85,3.85-3.85h14.52
			c2.12,0,3.85,1.73,3.85,3.85s-1.73,3.85-3.85,3.85H63.41v10.67C63.41,95.34,61.69,97.07,59.56,97.07z M59.56,75.6
			c-1.71,0-3.1,1.39-3.1,3.1v14.52c0,1.71,1.39,3.1,3.1,3.1s3.1-1.39,3.1-3.1V81.8h11.42c1.71,0,3.1-1.39,3.1-3.1s-1.39-3.1-3.1-3.1
			H59.56z"/>
	</g>
	<g>
		<linearGradient id="SVGID_15_" gradientUnits="userSpaceOnUse" x1="996.9207" y1="140.0029" x2="-494.0601" y2="50.1004">
			<stop  offset="0" style="stop-color:#F29127"/>
			<stop  offset="0.2054" style="stop-color:#EC8426"/>
			<stop  offset="0.6036" style="stop-color:#DE6626"/>
			<stop  offset="1" style="stop-color:#D13D27"/>
		</linearGradient>
		<path class="st14" d="M107.95,75.23H93.43c-1.91,0-3.47,1.56-3.47,3.47v14.52c0,1.91,1.56,3.47,3.47,3.47s3.47-1.56,3.47-3.47
			V82.18h11.05c1.91,0,3.47-1.56,3.47-3.47S109.86,75.23,107.95,75.23z"/>
		<linearGradient id="SVGID_16_" gradientUnits="userSpaceOnUse" x1="996.9207" y1="140.0029" x2="-494.0601" y2="50.1004">
			<stop  offset="0" style="stop-color:#F29127"/>
			<stop  offset="0.2054" style="stop-color:#EC8426"/>
			<stop  offset="0.6036" style="stop-color:#DE6626"/>
			<stop  offset="1" style="stop-color:#D13D27"/>
		</linearGradient>
		<path class="st15" d="M93.43,97.07c-2.12,0-3.85-1.73-3.85-3.85V78.7c0-2.12,1.73-3.85,3.85-3.85h14.52
			c2.12,0,3.85,1.73,3.85,3.85s-1.73,3.85-3.85,3.85H97.28v10.67C97.28,95.34,95.55,97.07,93.43,97.07z M93.43,75.6
			c-1.71,0-3.1,1.39-3.1,3.1v14.52c0,1.71,1.39,3.1,3.1,3.1s3.1-1.39,3.1-3.1V81.8h11.42c1.71,0,3.1-1.39,3.1-3.1s-1.39-3.1-3.1-3.1
			H93.43z"/>
	</g>
	<g>
		<linearGradient id="SVGID_17_" gradientUnits="userSpaceOnUse" x1="997.0433" y1="137.9702" x2="-493.9375" y2="48.0677">
			<stop  offset="0" style="stop-color:#F29127"/>
			<stop  offset="0.2054" style="stop-color:#EC8426"/>
			<stop  offset="0.6036" style="stop-color:#DE6626"/>
			<stop  offset="1" style="stop-color:#D13D27"/>
		</linearGradient>
		<path class="st16" d="M141.78,75.23h-14.52c-1.91,0-3.47,1.56-3.47,3.47v14.52c0,1.91,1.56,3.47,3.47,3.47s3.47-1.56,3.47-3.47
			V82.18h11.05c1.91,0,3.47-1.56,3.47-3.47S143.73,75.23,141.78,75.23z"/>
		<linearGradient id="SVGID_18_" gradientUnits="userSpaceOnUse" x1="997.0433" y1="137.9703" x2="-493.9375" y2="48.0678">
			<stop  offset="0" style="stop-color:#F29127"/>
			<stop  offset="0.2054" style="stop-color:#EC8426"/>
			<stop  offset="0.6036" style="stop-color:#DE6626"/>
			<stop  offset="1" style="stop-color:#D13D27"/>
		</linearGradient>
		<path class="st17" d="M127.26,97.07c-2.12,0-3.85-1.73-3.85-3.85V78.7c0-2.12,1.73-3.85,3.85-3.85h14.52
			c2.12,0,3.85,1.73,3.85,3.85s-1.73,3.85-3.85,3.85h-10.67v10.67C131.11,95.34,129.38,97.07,127.26,97.07z M127.26,75.6
			c-1.71,0-3.1,1.39-3.1,3.1v14.52c0,1.71,1.39,3.1,3.1,3.1c1.71,0,3.1-1.39,3.1-3.1V81.8h11.42c1.71,0,3.1-1.39,3.1-3.1
			s-1.39-3.1-3.1-3.1H127.26z"/>
	</g>
</g>
</svg>
