<!-- Generator: Adobe Illustrator 25.1.0, SVG Export Plug-In  -->
<svg version="1.1" xmlns="http://www.w3.org/2000/svg" xmlns:xlink="http://www.w3.org/1999/xlink" x="0px" y="0px"
	 width="199.01px" height="159.39px" viewBox="0 0 199.01 159.39"
	 style="overflow:visible;enable-background:new 0 0 199.01 159.39;" xml:space="preserve">
<style type="text/css">
	.st0{fill:url(#SVGID_1_);}
	.st1{fill:url(#SVGID_2_);}
	.st2{fill:url(#SVGID_3_);}
	.st3{fill:url(#SVGID_4_);}
	.st4{fill:url(#SVGID_5_);}
	.st5{fill:url(#SVGID_6_);}
	.st6{fill:url(#SVGID_7_);}
	.st7{fill:url(#SVGID_8_);}
	.st8{fill:url(#SVGID_9_);}
	.st9{fill:url(#SVGID_10_);}
	.st10{fill:url(#SVGID_11_);}
	.st11{fill:url(#SVGID_12_);}
	.st12{fill:url(#SVGID_13_);}
	.st13{fill:url(#SVGID_14_);}
	.st14{fill:url(#SVGID_15_);}
	.st15{fill:url(#SVGID_16_);}
	.st16{fill:url(#SVGID_17_);}
	.st17{fill:url(#SVGID_18_);}
	.st18{fill:url(#SVGID_19_);}
	.st19{fill:url(#SVGID_20_);}
	.st20{fill:url(#SVGID_21_);}
	.st21{fill:url(#SVGID_22_);}
	.st22{fill:url(#SVGID_23_);}
	.st23{fill:url(#SVGID_24_);}
	.st24{fill:url(#SVGID_25_);}
	.st25{fill:url(#SVGID_26_);}
	.st26{fill:url(#SVGID_27_);}
	.st27{fill:url(#SVGID_28_);}
	.st28{fill:url(#SVGID_29_);}
	.st29{fill:url(#SVGID_30_);}
	.st30{fill:url(#SVGID_31_);}
	.st31{fill:url(#SVGID_32_);}
	.st32{fill:url(#SVGID_33_);}
	.st33{fill:url(#SVGID_34_);}
	.st34{fill:url(#SVGID_35_);}
	.st35{fill:url(#SVGID_36_);}
	.st36{fill:url(#SVGID_37_);}
	.st37{fill:url(#SVGID_38_);}
	.st38{fill:url(#SVGID_39_);}
	.st39{fill:url(#SVGID_40_);}
</style>
<defs>
</defs>
<g>
	<linearGradient id="SVGID_1_" gradientUnits="userSpaceOnUse" x1="236.4951" y1="88.3492" x2="-1254.4857" y2="-1.5534">
		<stop  offset="0" style="stop-color:#F29127"/>
		<stop  offset="0.2054" style="stop-color:#EC8426"/>
		<stop  offset="0.6036" style="stop-color:#DE6626"/>
		<stop  offset="1" style="stop-color:#D13D27"/>
	</linearGradient>
	<path class="st0" d="M191.96,23.11h-2.85V10.35C189.1,4.64,184.46,0,178.75,0H20.26C14.55,0,9.91,4.64,9.91,10.35v12.76H7.05
		C3.16,23.11,0,26.28,0,30.17v122.17c0,3.89,3.16,7.05,7.05,7.05h184.91c3.89,0,7.05-3.16,7.05-7.05V30.17
		C199.01,26.28,195.85,23.11,191.96,23.11z M17.41,10.35c0-1.57,1.28-2.85,2.85-2.85h158.49c1.57,0,2.85,1.28,2.85,2.85v12.76H17.41
		V10.35z M191.51,151.89H7.5V30.61h6.16h171.7h6.16V151.89z"/>
	<linearGradient id="SVGID_2_" gradientUnits="userSpaceOnUse" x1="234.3317" y1="124.2272" x2="-1256.649" y2="34.3247">
		<stop  offset="0" style="stop-color:#F29127"/>
		<stop  offset="0.2054" style="stop-color:#EC8426"/>
		<stop  offset="0.6036" style="stop-color:#DE6626"/>
		<stop  offset="1" style="stop-color:#D13D27"/>
	</linearGradient>
	<path class="st1" d="M43.37,82.55c-16.63,0-30.17,13.53-30.17,30.17s13.53,30.17,30.17,30.17c16.63,0,30.17-13.53,30.17-30.17
		S60.01,82.55,43.37,82.55z M43.37,135.38c-12.5,0-22.67-10.17-22.67-22.67s10.17-22.67,22.67-22.67c12.5,0,22.67,10.17,22.67,22.67
		S55.87,135.38,43.37,135.38z"/>
	<linearGradient id="SVGID_3_" gradientUnits="userSpaceOnUse" x1="234.7531" y1="117.2388" x2="-1256.2277" y2="27.3363">
		<stop  offset="0" style="stop-color:#F29127"/>
		<stop  offset="0.2054" style="stop-color:#EC8426"/>
		<stop  offset="0.6036" style="stop-color:#DE6626"/>
		<stop  offset="1" style="stop-color:#D13D27"/>
	</linearGradient>
	<path class="st2" d="M43.38,95.75C43.38,95.75,43.37,95.75,43.38,95.75c-2.07,0-3.75,1.68-3.75,3.75c0,2.07,1.67,3.75,3.75,3.75
		c5.21,0.01,9.46,4.25,9.46,9.46c0,2.07,1.68,3.75,3.75,3.75c0,0,0,0,0,0c2.07,0,3.75-1.68,3.75-3.75
		C60.32,103.37,52.71,95.76,43.38,95.75z"/>
	<linearGradient id="SVGID_4_" gradientUnits="userSpaceOnUse" x1="234.3318" y1="124.2258" x2="-1256.649" y2="34.3233">
		<stop  offset="0" style="stop-color:#F29127"/>
		<stop  offset="0.2054" style="stop-color:#EC8426"/>
		<stop  offset="0.6036" style="stop-color:#DE6626"/>
		<stop  offset="1" style="stop-color:#D13D27"/>
	</linearGradient>
	<path class="st3" d="M45.45,109.6c-0.2-0.14-0.42-0.25-0.65-0.35c-0.22-0.09-0.46-0.16-0.7-0.21c-1.23-0.25-2.52,0.15-3.38,1.02
		c-0.17,0.18-0.33,0.37-0.47,0.57c-0.13,0.2-0.25,0.42-0.34,0.65c-0.1,0.23-0.17,0.46-0.22,0.7c-0.04,0.24-0.07,0.49-0.07,0.74
		c0,0.24,0.03,0.49,0.07,0.73c0.05,0.24,0.12,0.47,0.22,0.7c0.09,0.22,0.21,0.44,0.34,0.65c0.14,0.2,0.3,0.39,0.47,0.57
		c0.69,0.69,1.66,1.09,2.65,1.09c0.99,0,1.96-0.4,2.65-1.09c0.17-0.18,0.33-0.37,0.47-0.57c0.13-0.21,0.25-0.43,0.34-0.65
		c0.1-0.23,0.17-0.46,0.22-0.7c0.04-0.24,0.07-0.49,0.07-0.73c0-0.99-0.4-1.96-1.1-2.66C45.85,109.89,45.66,109.73,45.45,109.6z"/>
	<linearGradient id="SVGID_5_" gradientUnits="userSpaceOnUse" x1="234.7384" y1="117.4825" x2="-1256.2424" y2="27.58">
		<stop  offset="0" style="stop-color:#F29127"/>
		<stop  offset="0.2054" style="stop-color:#EC8426"/>
		<stop  offset="0.6036" style="stop-color:#DE6626"/>
		<stop  offset="1" style="stop-color:#D13D27"/>
	</linearGradient>
	<path class="st4" d="M155.64,82.55c-16.63,0-30.17,13.53-30.17,30.17s13.53,30.17,30.17,30.17c16.63,0,30.17-13.53,30.17-30.17
		S172.27,82.55,155.64,82.55z M155.64,135.38c-12.5,0-22.67-10.17-22.67-22.67s10.17-22.67,22.67-22.67
		c12.5,0,22.67,10.17,22.67,22.67S168.13,135.38,155.64,135.38z"/>
	<linearGradient id="SVGID_6_" gradientUnits="userSpaceOnUse" x1="235.1598" y1="110.494" x2="-1255.821" y2="20.5915">
		<stop  offset="0" style="stop-color:#F29127"/>
		<stop  offset="0.2054" style="stop-color:#EC8426"/>
		<stop  offset="0.6036" style="stop-color:#DE6626"/>
		<stop  offset="1" style="stop-color:#D13D27"/>
	</linearGradient>
	<path class="st5" d="M155.64,95.75C155.64,95.75,155.64,95.75,155.64,95.75c-2.07,0-3.75,1.68-3.75,3.75
		c0,2.07,1.67,3.75,3.75,3.75c5.21,0.01,9.46,4.25,9.46,9.46c0,2.07,1.68,3.75,3.75,3.75c0,0,0,0,0,0c2.07,0,3.75-1.68,3.75-3.75
		C172.58,103.37,164.98,95.76,155.64,95.75z"/>
	<linearGradient id="SVGID_7_" gradientUnits="userSpaceOnUse" x1="234.7382" y1="117.4851" x2="-1256.2426" y2="27.5825">
		<stop  offset="0" style="stop-color:#F29127"/>
		<stop  offset="0.2054" style="stop-color:#EC8426"/>
		<stop  offset="0.6036" style="stop-color:#DE6626"/>
		<stop  offset="1" style="stop-color:#D13D27"/>
	</linearGradient>
	<path class="st6" d="M159.1,111.28c-0.1-0.23-0.21-0.45-0.35-0.65c-0.13-0.2-0.29-0.4-0.46-0.57c-0.18-0.17-0.37-0.33-0.57-0.46
		c-0.21-0.14-0.42-0.26-0.65-0.35c-0.23-0.09-0.46-0.17-0.7-0.21c-0.49-0.1-0.98-0.1-1.47,0c-0.24,0.04-0.47,0.12-0.7,0.21
		c-0.23,0.09-0.44,0.21-0.65,0.35c-0.2,0.13-0.39,0.29-0.57,0.46c-0.17,0.17-0.33,0.37-0.46,0.57c-0.14,0.2-0.25,0.42-0.35,0.65
		c-0.09,0.23-0.16,0.46-0.21,0.7c-0.05,0.24-0.07,0.49-0.07,0.73c0,0.25,0.02,0.5,0.07,0.74c0.05,0.24,0.12,0.47,0.21,0.7
		c0.1,0.22,0.21,0.44,0.35,0.65c0.13,0.2,0.29,0.39,0.46,0.57c0.18,0.17,0.37,0.33,0.57,0.46c0.21,0.14,0.43,0.25,0.65,0.35
		c0.23,0.09,0.46,0.16,0.7,0.21c0.25,0.05,0.49,0.08,0.74,0.08c0.98,0,1.94-0.41,2.65-1.1c0.17-0.18,0.33-0.37,0.46-0.57
		c0.14-0.21,0.25-0.43,0.35-0.65c0.09-0.23,0.16-0.46,0.21-0.7s0.07-0.49,0.07-0.74c0-0.24-0.02-0.49-0.07-0.73
		S159.19,111.51,159.1,111.28z"/>
	<linearGradient id="SVGID_8_" gradientUnits="userSpaceOnUse" x1="234.3367" y1="124.1447" x2="-1256.6442" y2="34.2422">
		<stop  offset="0" style="stop-color:#F29127"/>
		<stop  offset="0.2054" style="stop-color:#EC8426"/>
		<stop  offset="0.6036" style="stop-color:#DE6626"/>
		<stop  offset="1" style="stop-color:#D13D27"/>
	</linearGradient>
	<path class="st7" d="M119.76,132.52v-13.21V99.5c0-2.07-1.68-3.75-3.75-3.75H83c-2.07,0-3.75,1.68-3.75,3.75v19.81v13.21
		c0,2.07,1.68,3.75,3.75,3.75h33.02C118.09,136.27,119.76,134.6,119.76,132.52z M86.75,103.25h25.52v12.31H86.75V103.25z
		 M86.75,123.07h5.71v5.71h-5.71V123.07z M112.26,128.77H99.95v-5.71h12.31V128.77z"/>
	<linearGradient id="SVGID_9_" gradientUnits="userSpaceOnUse" x1="237.4509" y1="72.4974" x2="-1253.5299" y2="-17.4051">
		<stop  offset="0" style="stop-color:#F29127"/>
		<stop  offset="0.2054" style="stop-color:#EC8426"/>
		<stop  offset="0.6036" style="stop-color:#DE6626"/>
		<stop  offset="1" style="stop-color:#D13D27"/>
	</linearGradient>
	<path class="st8" d="M16.96,76.84h132.08c2.07,0,3.75-1.68,3.75-3.75V53.28c0-2.07-1.68-3.75-3.75-3.75H16.96
		c-2.07,0-3.75,1.68-3.75,3.75v19.81C13.21,75.16,14.89,76.84,16.96,76.84z M145.28,69.34H40.52v-12.1c0-0.07-0.02-0.14-0.02-0.21
		h5.73v2.85c0,2.07,1.68,3.75,3.75,3.75s3.75-1.68,3.75-3.75v-2.85h5.71v2.85c0,2.07,1.68,3.75,3.75,3.75s3.75-1.68,3.75-3.75v-2.85
		h5.71v2.85c0,2.07,1.68,3.75,3.75,3.75s3.75-1.68,3.75-3.75v-2.85h5.71v2.85c0,2.07,1.68,3.75,3.75,3.75s3.75-1.68,3.75-3.75v-2.85
		h5.71v2.85c0,2.07,1.68,3.75,3.75,3.75s3.75-1.68,3.75-3.75v-2.85h5.71v2.85c0,2.07,1.68,3.75,3.75,3.75s3.75-1.68,3.75-3.75v-2.85
		h5.71v2.85c0,2.07,1.68,3.75,3.75,3.75s3.75-1.68,3.75-3.75v-2.85h12.31V69.34z M20.71,57.03h12.33c0,0.07-0.02,0.14-0.02,0.21
		v12.1H20.71V57.03z"/>
	<linearGradient id="SVGID_10_" gradientUnits="userSpaceOnUse" x1="237.7738" y1="67.1413" x2="-1253.2069" y2="-22.7613">
		<stop  offset="0" style="stop-color:#F29127"/>
		<stop  offset="0.2054" style="stop-color:#EC8426"/>
		<stop  offset="0.6036" style="stop-color:#DE6626"/>
		<stop  offset="1" style="stop-color:#D13D27"/>
	</linearGradient>
	<path class="st9" d="M172.15,49.53c-7.53,0-13.66,6.13-13.66,13.66c0,7.53,6.13,13.66,13.66,13.66c7.53,0,13.66-6.13,13.66-13.66
		C185.8,55.65,179.68,49.53,172.15,49.53z M172.15,69.34c-3.39,0-6.16-2.76-6.16-6.16c0-3.39,2.76-6.16,6.16-6.16
		c3.39,0,6.16,2.76,6.16,6.16C178.3,66.58,175.54,69.34,172.15,69.34z"/>
	<linearGradient id="SVGID_11_" gradientUnits="userSpaceOnUse" x1="238.6242" y1="53.0391" x2="-1252.3566" y2="-36.8634">
		<stop  offset="0" style="stop-color:#F29127"/>
		<stop  offset="0.2054" style="stop-color:#EC8426"/>
		<stop  offset="0.6036" style="stop-color:#DE6626"/>
		<stop  offset="1" style="stop-color:#D13D27"/>
	</linearGradient>
	<path class="st10" d="M16.96,43.82h13.21c2.07,0,3.75-1.68,3.75-3.75s-1.68-3.75-3.75-3.75H16.96c-2.07,0-3.75,1.68-3.75,3.75
		S14.89,43.82,16.96,43.82z"/>
	<linearGradient id="SVGID_12_" gradientUnits="userSpaceOnUse" x1="238.7199" y1="51.4521" x2="-1252.2609" y2="-38.4505">
		<stop  offset="0" style="stop-color:#F29127"/>
		<stop  offset="0.2054" style="stop-color:#EC8426"/>
		<stop  offset="0.6036" style="stop-color:#DE6626"/>
		<stop  offset="1" style="stop-color:#D13D27"/>
	</linearGradient>
	<path class="st11" d="M43.37,43.82h13.21c2.07,0,3.75-1.68,3.75-3.75s-1.68-3.75-3.75-3.75H43.37c-2.07,0-3.75,1.68-3.75,3.75
		S41.3,43.82,43.37,43.82z"/>
	<linearGradient id="SVGID_13_" gradientUnits="userSpaceOnUse" x1="238.8156" y1="49.8651" x2="-1252.1653" y2="-40.0375">
		<stop  offset="0" style="stop-color:#F29127"/>
		<stop  offset="0.2054" style="stop-color:#EC8426"/>
		<stop  offset="0.6036" style="stop-color:#DE6626"/>
		<stop  offset="1" style="stop-color:#D13D27"/>
	</linearGradient>
	<path class="st12" d="M69.79,43.82H83c2.07,0,3.75-1.68,3.75-3.75s-1.68-3.75-3.75-3.75H69.79c-2.07,0-3.75,1.68-3.75,3.75
		S67.72,43.82,69.79,43.82z"/>
	<linearGradient id="SVGID_14_" gradientUnits="userSpaceOnUse" x1="238.9112" y1="48.2781" x2="-1252.0696" y2="-41.6245">
		<stop  offset="0" style="stop-color:#F29127"/>
		<stop  offset="0.2054" style="stop-color:#EC8426"/>
		<stop  offset="0.6036" style="stop-color:#DE6626"/>
		<stop  offset="1" style="stop-color:#D13D27"/>
	</linearGradient>
	<path class="st13" d="M96.2,43.82h13.21c2.07,0,3.75-1.68,3.75-3.75s-1.68-3.75-3.75-3.75H96.2c-2.07,0-3.75,1.68-3.75,3.75
		S94.13,43.82,96.2,43.82z"/>
	<linearGradient id="SVGID_15_" gradientUnits="userSpaceOnUse" x1="239.0069" y1="46.691" x2="-1251.9739" y2="-43.2115">
		<stop  offset="0" style="stop-color:#F29127"/>
		<stop  offset="0.2054" style="stop-color:#EC8426"/>
		<stop  offset="0.6036" style="stop-color:#DE6626"/>
		<stop  offset="1" style="stop-color:#D13D27"/>
	</linearGradient>
	<path class="st14" d="M122.62,43.82h13.21c2.07,0,3.75-1.68,3.75-3.75s-1.68-3.75-3.75-3.75h-13.21c-2.07,0-3.75,1.68-3.75,3.75
		S120.55,43.82,122.62,43.82z"/>
	<linearGradient id="SVGID_16_" gradientUnits="userSpaceOnUse" x1="239.1026" y1="45.104" x2="-1251.8782" y2="-44.7985">
		<stop  offset="0" style="stop-color:#F29127"/>
		<stop  offset="0.2054" style="stop-color:#EC8426"/>
		<stop  offset="0.6036" style="stop-color:#DE6626"/>
		<stop  offset="1" style="stop-color:#D13D27"/>
	</linearGradient>
	<path class="st15" d="M149.03,43.82h13.21c2.07,0,3.75-1.68,3.75-3.75s-1.68-3.75-3.75-3.75h-13.21c-2.07,0-3.75,1.68-3.75,3.75
		S146.96,43.82,149.03,43.82z"/>
	<linearGradient id="SVGID_17_" gradientUnits="userSpaceOnUse" x1="239.1864" y1="43.7154" x2="-1251.7944" y2="-46.1871">
		<stop  offset="0" style="stop-color:#F29127"/>
		<stop  offset="0.2054" style="stop-color:#EC8426"/>
		<stop  offset="0.6036" style="stop-color:#DE6626"/>
		<stop  offset="1" style="stop-color:#D13D27"/>
	</linearGradient>
	<path class="st16" d="M182.05,36.32h-6.6c-2.07,0-3.75,1.68-3.75,3.75s1.68,3.75,3.75,3.75h6.6c2.07,0,3.75-1.68,3.75-3.75
		S184.12,36.32,182.05,36.32z"/>
	<linearGradient id="SVGID_18_" gradientUnits="userSpaceOnUse" x1="232.6779" y1="151.6543" x2="-1258.3029" y2="61.7517">
		<stop  offset="0" style="stop-color:#F29127"/>
		<stop  offset="0.2054" style="stop-color:#EC8426"/>
		<stop  offset="0.6036" style="stop-color:#DE6626"/>
		<stop  offset="1" style="stop-color:#D13D27"/>
	</linearGradient>
	<path class="st17" d="M89.6,138.68H69.79c-2.07,0-3.75,1.68-3.75,3.75s1.68,3.75,3.75,3.75H89.6c2.07,0,3.75-1.68,3.75-3.75
		S91.67,138.68,89.6,138.68z"/>
	<linearGradient id="SVGID_19_" gradientUnits="userSpaceOnUse" x1="232.8214" y1="149.2738" x2="-1258.1593" y2="59.3713">
		<stop  offset="0" style="stop-color:#F29127"/>
		<stop  offset="0.2054" style="stop-color:#EC8426"/>
		<stop  offset="0.6036" style="stop-color:#DE6626"/>
		<stop  offset="1" style="stop-color:#D13D27"/>
	</linearGradient>
	<path class="st18" d="M129.22,138.68h-19.81c-2.07,0-3.75,1.68-3.75,3.75s1.68,3.75,3.75,3.75h19.81c2.07,0,3.75-1.68,3.75-3.75
		S131.29,138.68,129.22,138.68z"/>
	<linearGradient id="SVGID_20_" gradientUnits="userSpaceOnUse" x1="236.122" y1="94.5355" x2="-1254.8588" y2="4.633">
		<stop  offset="0" style="stop-color:#F29127"/>
		<stop  offset="0.2054" style="stop-color:#EC8426"/>
		<stop  offset="0.6036" style="stop-color:#DE6626"/>
		<stop  offset="1" style="stop-color:#D13D27"/>
	</linearGradient>
	<path class="st19" d="M89.6,82.55c-2.07,0-3.75,1.68-3.75,3.75s1.68,3.75,3.75,3.75h19.81c2.07,0,3.75-1.68,3.75-3.75
		s-1.68-3.75-3.75-3.75H89.6z"/>
</g>
</svg>
