<svg id="Capa_1" data-name="Capa 1" xmlns="http://www.w3.org/2000/svg" xmlns:xlink="http://www.w3.org/1999/xlink" viewBox="0 0 1000 1000"><defs><style>.cls-1{fill:none;}.cls-2{clip-path:url(#clip-path);}.cls-3{fill:#fff;}.cls-4{clip-path:url(#clip-path-2);}.cls-5{clip-path:url(#clip-path-3);}</style><clipPath id="clip-path"><rect class="cls-1" y="-1128.25" width="1000" height="1000"/></clipPath><clipPath id="clip-path-2"><rect class="cls-1" width="1000" height="1000"/></clipPath><clipPath id="clip-path-3"><rect class="cls-1" x="-1223.09" y="-1128.25" width="1000" height="1000"/></clipPath></defs><g class="cls-2"><path class="cls-3" d="M111.26,194.8a1.74,1.74,0,1,1-2.34.75A1.73,1.73,0,0,1,111.26,194.8Z"/><path class="cls-3" d="M254.65,266.2a2.26,2.26,0,1,1,1.87,2.6A2.26,2.26,0,0,1,254.65,266.2Z"/><path class="cls-3" d="M646.81,356.5a2.21,2.21,0,1,1-2.58-1.76A2.21,2.21,0,0,1,646.81,356.5Z"/><path class="cls-3" d="M721.58,472.84a1.81,1.81,0,1,1-2.21-1.3A1.81,1.81,0,0,1,721.58,472.84Z"/><path class="cls-3" d="M725.82,224.51a2,2,0,1,1,1.75,2.15A2,2,0,0,1,725.82,224.51Z"/><path class="cls-3" d="M389.6,188.51a2.32,2.32,0,1,1,.79,3.18A2.31,2.31,0,0,1,389.6,188.51Z"/><path class="cls-3" d="M189.8,121.62a1.75,1.75,0,1,1,2.32-.87A1.75,1.75,0,0,1,189.8,121.62Z"/><path class="cls-3" d="M639,200.34A2.13,2.13,0,1,1,636.3,199,2.13,2.13,0,0,1,639,200.34Z"/><path class="cls-3" d="M785.12,333.46a2,2,0,1,1,1.91-2.07A2,2,0,0,1,785.12,333.46Z"/><path class="cls-3" d="M207.52,247.26a2.36,2.36,0,1,1-2.7-2A2.35,2.35,0,0,1,207.52,247.26Z"/><path class="cls-3" d="M483.6,113.07a1.84,1.84,0,0,1,.87-2.47,1.85,1.85,0,1,1-.87,2.47Z"/><path class="cls-3" d="M51.74,17.22a1.91,1.91,0,1,1,2.55-.86A1.9,1.9,0,0,1,51.74,17.22Z"/><path class="cls-3" d="M559.4,114a1.76,1.76,0,1,1-2.36.77A1.76,1.76,0,0,1,559.4,114Z"/><path class="cls-3" d="M530.77,190.07a1.74,1.74,0,1,1,1.08,2.21A1.73,1.73,0,0,1,530.77,190.07Z"/><path class="cls-3" d="M101.59,44a2.23,2.23,0,1,1,1.66-2.68A2.23,2.23,0,0,1,101.59,44Z"/><path class="cls-3" d="M639.41,73.22a1.95,1.95,0,1,1-.63,2.69A1.95,1.95,0,0,1,639.41,73.22Z"/><path class="cls-3" d="M2.88,15.72a2,2,0,1,1,1.2-2.58A2,2,0,0,1,2.88,15.72Z"/></g><g class="cls-4"><path class="cls-3" d="M934.08,572.72a2.11,2.11,0,1,1,2.79,1A2.11,2.11,0,0,1,934.08,572.72Z"/><path class="cls-3" d="M71.5,286a2.11,2.11,0,1,1,1.85,2.35A2.11,2.11,0,0,1,71.5,286Z"/><path class="cls-3" d="M384.74,126.65a2.11,2.11,0,1,1,1.85,2.35A2.11,2.11,0,0,1,384.74,126.65Z"/><path class="cls-3" d="M260.54,308.65a2.06,2.06,0,1,1-2.84.63A2.06,2.06,0,0,1,260.54,308.65Z"/><path class="cls-3" d="M408.16,553.28a2.07,2.07,0,1,1-2.87.6A2.07,2.07,0,0,1,408.16,553.28Z"/><path class="cls-3" d="M277.25,391.75a1.72,1.72,0,1,1-2.2,1A1.73,1.73,0,0,1,277.25,391.75Z"/><path class="cls-3" d="M653.87,840.59a2.12,2.12,0,1,1,2.26-2A2.13,2.13,0,0,1,653.87,840.59Z"/><path class="cls-3" d="M591.21,597.07a2.26,2.26,0,1,1,1.47-2.84A2.26,2.26,0,0,1,591.21,597.07Z"/><path class="cls-3" d="M602.44,49a2,2,0,1,1,2,2A2,2,0,0,1,602.44,49Z"/><path class="cls-3" d="M868,350.73a2.21,2.21,0,1,1,2.37,2A2.2,2.2,0,0,1,868,350.73Z"/><path class="cls-3" d="M664.23,951.39a2.25,2.25,0,1,1-2-2.45A2.25,2.25,0,0,1,664.23,951.39Z"/><path class="cls-3" d="M679.24,819.28a2.37,2.37,0,1,1-1.83-2.81A2.37,2.37,0,0,1,679.24,819.28Z"/><path class="cls-3" d="M671.5,933.39a2.13,2.13,0,1,1-.4-3A2.13,2.13,0,0,1,671.5,933.39Z"/><path class="cls-3" d="M63.84,535.68a1.77,1.77,0,1,1-.41-2.48A1.78,1.78,0,0,1,63.84,535.68Z"/><path class="cls-3" d="M813.47,529.87a2.21,2.21,0,1,1,2.17,2.25A2.21,2.21,0,0,1,813.47,529.87Z"/><path class="cls-3" d="M851.94,921.65a2.28,2.28,0,1,1,1.08-3A2.29,2.29,0,0,1,851.94,921.65Z"/><path class="cls-3" d="M588.15,805a1.83,1.83,0,1,1-2.48-.76A1.83,1.83,0,0,1,588.15,805Z"/><path class="cls-3" d="M223.16,338.75a2.27,2.27,0,1,1-2.89-1.4A2.27,2.27,0,0,1,223.16,338.75Z"/><path class="cls-3" d="M431.9,235a2.27,2.27,0,1,1-2.88-1.4A2.26,2.26,0,0,1,431.9,235Z"/><path class="cls-3" d="M236,881.2a2.22,2.22,0,1,1-1.92-2.47A2.22,2.22,0,0,1,236,881.2Z"/><path class="cls-3" d="M984.81,999.42a2.25,2.25,0,1,1-.24,3.17A2.24,2.24,0,0,1,984.81,999.42Z"/><path class="cls-3" d="M791.32,109.12a2.27,2.27,0,1,1,2.23-2.32A2.27,2.27,0,0,1,791.32,109.12Z"/><path class="cls-3" d="M49.69,158.47a2.37,2.37,0,1,1,1.2,3.14A2.38,2.38,0,0,1,49.69,158.47Z"/><path class="cls-3" d="M830.12,827.58a2.28,2.28,0,1,1-3.19.42A2.27,2.27,0,0,1,830.12,827.58Z"/><path class="cls-3" d="M957.31,396.34a2.19,2.19,0,0,1-3.6-2.51,2.19,2.19,0,1,1,3.6,2.51Z"/><path class="cls-3" d="M169.8,106.47a1.79,1.79,0,1,1,2.52-.33A1.78,1.78,0,0,1,169.8,106.47Z"/><path class="cls-3" d="M731,491.24a2.1,2.1,0,1,1,2.65-1.36A2.11,2.11,0,0,1,731,491.24Z"/><path class="cls-3" d="M859.92,20a1.73,1.73,0,1,1,2.4-.45A1.73,1.73,0,0,1,859.92,20Z"/><path class="cls-3" d="M570.18,627a2.43,2.43,0,1,1,2.91,1.82A2.43,2.43,0,0,1,570.18,627Z"/><path class="cls-3" d="M78.23,591.85A2.27,2.27,0,1,1,80,594.56,2.26,2.26,0,0,1,78.23,591.85Z"/><path class="cls-3" d="M680.23,694.32a2.09,2.09,0,1,1-1,2.76A2.09,2.09,0,0,1,680.23,694.32Z"/><path class="cls-3" d="M619.77,382.16a2.27,2.27,0,1,1,2.71-1.71A2.26,2.26,0,0,1,619.77,382.16Z"/><path class="cls-3" d="M369,488a2.33,2.33,0,1,1,.22,3.29A2.32,2.32,0,0,1,369,488Z"/><path class="cls-3" d="M841,623.11a2.17,2.17,0,1,1,2.43-1.88A2.17,2.17,0,0,1,841,623.11Z"/><path class="cls-3" d="M82.81,724.72a2.41,2.41,0,1,1,3-1.59A2.4,2.4,0,0,1,82.81,724.72Z"/><path class="cls-3" d="M709.3,769.9a2.34,2.34,0,1,1-2.58,2.07A2.34,2.34,0,0,1,709.3,769.9Z"/><path class="cls-3" d="M532.32,983.53a1.82,1.82,0,1,1,1.83-1.81A1.82,1.82,0,0,1,532.32,983.53Z"/><path class="cls-3" d="M847.43,807.36a2.29,2.29,0,0,1,.72-4.53,2.29,2.29,0,1,1-.72,4.53Z"/><path class="cls-3" d="M255.26,746.15a1.92,1.92,0,0,1-.59-2.64,1.91,1.91,0,1,1,.59,2.64Z"/><path class="cls-3" d="M659.29,895a2,2,0,1,1-2.49-1.38A2,2,0,0,1,659.29,895Z"/><path class="cls-3" d="M279.59,505a2.35,2.35,0,1,1,2.82,1.76A2.35,2.35,0,0,1,279.59,505Z"/><path class="cls-3" d="M109.42,913.8a1.8,1.8,0,1,1,2.52-.33A1.79,1.79,0,0,1,109.42,913.8Z"/><path class="cls-3" d="M503.94,430.85a2.27,2.27,0,1,1-3.21.06A2.26,2.26,0,0,1,503.94,430.85Z"/><path class="cls-3" d="M162.2,326.09a1.75,1.75,0,1,1-1.46-2A1.74,1.74,0,0,1,162.2,326.09Z"/><path class="cls-3" d="M837.58,763.91a2.41,2.41,0,1,1-3.38.45A2.41,2.41,0,0,1,837.58,763.91Z"/><path class="cls-3" d="M812.53,394.81a2.13,2.13,0,1,1-.63-2.95A2.13,2.13,0,0,1,812.53,394.81Z"/><path class="cls-3" d="M594.28,254.11a1.74,1.74,0,1,1-2.42.48A1.74,1.74,0,0,1,594.28,254.11Z"/><path class="cls-3" d="M617,977.91a1.86,1.86,0,1,1-1.25-2.32A1.87,1.87,0,0,1,617,977.91Z"/><path class="cls-3" d="M17.54,602.05a2.36,2.36,0,1,1-.48-3.31A2.35,2.35,0,0,1,17.54,602.05Z"/><path class="cls-3" d="M740.73,925.37a2.1,2.1,0,1,1-3,0A2.09,2.09,0,0,1,740.73,925.37Z"/><path class="cls-3" d="M779.88,455.07a2.11,2.11,0,1,1-1.44-2.62A2.12,2.12,0,0,1,779.88,455.07Z"/><path class="cls-3" d="M780.88,935.29a1.85,1.85,0,1,1-.67-2.52A1.84,1.84,0,0,1,780.88,935.29Z"/><path class="cls-3" d="M84.22,92.12a1.78,1.78,0,1,1-2.34.93A1.78,1.78,0,0,1,84.22,92.12Z"/><path class="cls-3" d="M955.49,925.07a2,2,0,1,1-1.64-2.29A2,2,0,0,1,955.49,925.07Z"/><path class="cls-3" d="M928.49,755.23a2.18,2.18,0,1,1,2.8,1.31A2.19,2.19,0,0,1,928.49,755.23Z"/><path class="cls-3" d="M463,51.66a1.73,1.73,0,1,1-.35,2.42A1.72,1.72,0,0,1,463,51.66Z"/><path class="cls-3" d="M548,224.92a2,2,0,1,1,1.89,2.13A2,2,0,0,1,548,224.92Z"/><path class="cls-3" d="M865.19,110.9a2.15,2.15,0,1,1-2.29-2A2.15,2.15,0,0,1,865.19,110.9Z"/><path class="cls-3" d="M125.4,506.69a2.38,2.38,0,1,1-2.51-2.24A2.38,2.38,0,0,1,125.4,506.69Z"/><path class="cls-3" d="M65.23,792a1.92,1.92,0,1,1-2.66-.55A1.93,1.93,0,0,1,65.23,792Z"/><path class="cls-3" d="M801.75,202.56a2.39,2.39,0,1,1,3.37,0A2.39,2.39,0,0,1,801.75,202.56Z"/><path class="cls-3" d="M68.37,373.41a2.1,2.1,0,1,1,2.08-2.12A2.11,2.11,0,0,1,68.37,373.41Z"/><path class="cls-3" d="M292.32,370.89a1.91,1.91,0,1,1,2.52-1A1.91,1.91,0,0,1,292.32,370.89Z"/><path class="cls-3" d="M290.41,105a1.91,1.91,0,1,1,2.52-1A1.91,1.91,0,0,1,290.41,105Z"/><path class="cls-3" d="M811.67,282.12a2.06,2.06,0,1,1-2.29,1.78A2,2,0,0,1,811.67,282.12Z"/><path class="cls-3" d="M683.45,454.55a2.06,2.06,0,1,1-2.3,1.78A2.05,2.05,0,0,1,683.45,454.55Z"/><path class="cls-3" d="M179.63,864.09a2.33,2.33,0,1,1-1-3.12A2.33,2.33,0,0,1,179.63,864.09Z"/><path class="cls-3" d="M469.74,967.47a1.76,1.76,0,1,1,2.38.74A1.76,1.76,0,0,1,469.74,967.47Z"/><path class="cls-3" d="M420.71,980.45a2.07,2.07,0,1,1-1.25,2.65A2.08,2.08,0,0,1,420.71,980.45Z"/><path class="cls-3" d="M507.79,825.83a1.93,1.93,0,1,1-.71-2.63A1.93,1.93,0,0,1,507.79,825.83Z"/><path class="cls-3" d="M489.77,592.4a2.34,2.34,0,1,1,2.87-1.64A2.35,2.35,0,0,1,489.77,592.4Z"/><path class="cls-3" d="M889.9,662.17a1.87,1.87,0,1,1-1.08,2.41A1.86,1.86,0,0,1,889.9,662.17Z"/><path class="cls-3" d="M100.6,863.41a2,2,0,1,1-1.49,2.45A2,2,0,0,1,100.6,863.41Z"/><path class="cls-3" d="M641.59,808a2.34,2.34,0,1,1,3.14-1A2.33,2.33,0,0,1,641.59,808Z"/><path class="cls-3" d="M904.33,417.77a2.07,2.07,0,1,1,1.14,2.69A2.08,2.08,0,0,1,904.33,417.77Z"/><path class="cls-3" d="M358.85,876.24a2,2,0,1,1-2.46,1.29A2,2,0,0,1,358.85,876.24Z"/><path class="cls-3" d="M137.36,206.26a2,2,0,1,1-.76-2.69A2,2,0,0,1,137.36,206.26Z"/><path class="cls-3" d="M367.73,531.62A2.36,2.36,0,1,1,364.8,530,2.36,2.36,0,0,1,367.73,531.62Z"/><path class="cls-3" d="M580.08,434.87a2,2,0,1,1,2.62.86A2,2,0,0,1,580.08,434.87Z"/><path class="cls-3" d="M659.09,990a2,2,0,1,1,2.16-1.77A2,2,0,0,1,659.09,990Z"/><path class="cls-3" d="M193,440.87a2.23,2.23,0,1,1,3.15.14A2.23,2.23,0,0,1,193,440.87Z"/><path class="cls-3" d="M623.12,84.14a2.23,2.23,0,1,1,3.15.14A2.23,2.23,0,0,1,623.12,84.14Z"/><path class="cls-3" d="M333.51,763.85a2,2,0,1,1,2.37,1.5A2,2,0,0,1,333.51,763.85Z"/><path class="cls-3" d="M235.05,992.29a2.25,2.25,0,1,1,3.18-.16A2.25,2.25,0,0,1,235.05,992.29Z"/><path class="cls-3" d="M405,607.36a1.82,1.82,0,1,1,1.84-1.8A1.81,1.81,0,0,1,405,607.36Z"/><path class="cls-3" d="M113,239.3a1.8,1.8,0,1,1,1.92-1.68A1.8,1.8,0,0,1,113,239.3Z"/><path class="cls-3" d="M751.24,647.83a1.79,1.79,0,1,1,.78,2.4A1.79,1.79,0,0,1,751.24,647.83Z"/><path class="cls-3" d="M196.87,122a2.19,2.19,0,1,1,2.74-1.45A2.19,2.19,0,0,1,196.87,122Z"/><path class="cls-3" d="M525.82,105.35a2.19,2.19,0,1,1,2.75-1.45A2.19,2.19,0,0,1,525.82,105.35Z"/><path class="cls-3" d="M480,517.82a2,2,0,1,1-2.85.44A2,2,0,0,1,480,517.82Z"/><path class="cls-3" d="M467.38,411.93a1.82,1.82,0,1,1-2.49-.68A1.82,1.82,0,0,1,467.38,411.93Z"/><path class="cls-3" d="M893.09,186.18a1.89,1.89,0,1,1,2.47,2.87,1.89,1.89,0,1,1-2.47-2.87Z"/><path class="cls-3" d="M917.43,62.43a1.85,1.85,0,1,1-1.64-2A1.85,1.85,0,0,1,917.43,62.43Z"/><path class="cls-3" d="M935,282.59a1.94,1.94,0,1,1-2.63.77A1.94,1.94,0,0,1,935,282.59Z"/><path class="cls-3" d="M188.2,284.2a2,2,0,1,1-2.2-1.84A2,2,0,0,1,188.2,284.2Z"/><path class="cls-3" d="M536.36,946a2.16,2.16,0,1,1-3.05-.22A2.16,2.16,0,0,1,536.36,946Z"/><path class="cls-3" d="M480.9,316.57a2.14,2.14,0,1,1,.88-2.9A2.14,2.14,0,0,1,480.9,316.57Z"/><path class="cls-3" d="M274.89,791.54a2.26,2.26,0,1,1,2.87,1.42A2.26,2.26,0,0,1,274.89,791.54Z"/><path class="cls-3" d="M67.23,420.46a1.93,1.93,0,1,1-2.62-.74A1.92,1.92,0,0,1,67.23,420.46Z"/><path class="cls-3" d="M249.11,940.76a1.85,1.85,0,1,1-2.53.65A1.86,1.86,0,0,1,249.11,940.76Z"/><path class="cls-3" d="M253.53,640.7a1.85,1.85,0,1,1,2.6.37A1.85,1.85,0,0,1,253.53,640.7Z"/><path class="cls-3" d="M111.63,179.1a2.12,2.12,0,1,1-.86,2.88A2.12,2.12,0,0,1,111.63,179.1Z"/><path class="cls-3" d="M918.4,510.29a2.13,2.13,0,1,1,1.33-2.7A2.13,2.13,0,0,1,918.4,510.29Z"/><path class="cls-3" d="M676.1,200.34a2.4,2.4,0,1,1,.28-3.39A2.41,2.41,0,0,1,676.1,200.34Z"/><path class="cls-3" d="M207.2,807.09a1.93,1.93,0,1,1,.78-2.62A1.93,1.93,0,0,1,207.2,807.09Z"/><path class="cls-3" d="M112.62,984.14a2.17,2.17,0,1,1,2.43,1.87A2.17,2.17,0,0,1,112.62,984.14Z"/></g></svg>