<svg id="Capa_1" data-name="Capa 1" xmlns="http://www.w3.org/2000/svg" viewBox="0 0 603.47 259.21"><defs><style>.cls-1{fill:#f96500;}</style></defs><path class="cls-1" d="M65.94,67.58a2.94,2.94,0,0,1-1.76,0A107.68,107.68,0,0,0,49.4,65.29c-5.1-.35-10-.7-15-.7s-10,.35-15,.7A125.2,125.2,0,0,0,5.93,67.23l.35,13.55c.53,12.85,1.06,25.7,1.94,38.72a3.43,3.43,0,0,1-3.35,3.7A3.49,3.49,0,0,1,1,119.85v-.35c.71-13,1.41-25.87,1.76-38.72l.53-13A3.56,3.56,0,0,1,.12,64.94a3.56,3.56,0,0,1,2.64-4.4l.71-.17.17-8.63c.18-1.58.18-3.34.35-4.93a47.08,47.08,0,0,1,.88-4.75,54.24,54.24,0,0,1,7-18.12,52.4,52.4,0,0,1,6.16-7.75A42.15,42.15,0,0,1,26,10.38c6-3.16,12.32-5.1,18.66-6.86A174.8,174.8,0,0,1,64.18.35a3.61,3.61,0,0,1,4,3.17,3.89,3.89,0,0,1-3.17,4.22h-.88a84.68,84.68,0,0,0-18.83,0A86,86,0,0,0,36,9.33a89.13,89.13,0,0,0-9,3A35.19,35.19,0,0,0,13,24.64a45.87,45.87,0,0,0-6.86,17.6,57.34,57.34,0,0,0-.71,9.5l.35,9.15c4.58.88,9.16,1.41,13.73,1.94,4.93.35,10,.53,15,.53s9.86-.18,15-.53a107.68,107.68,0,0,0,14.78-2.29,3.82,3.82,0,0,1,4.58,2.64A3.89,3.89,0,0,1,65.94,67.58Z"/><path class="cls-1" d="M181.58,72.16a27.55,27.55,0,0,1-2.29,6.33,21.87,21.87,0,0,1-4,5.63,18.07,18.07,0,0,1-12.5,6,18.56,18.56,0,0,1-7-1.23,28.93,28.93,0,0,1-6.16-3,41.74,41.74,0,0,1-5.45-4.23,40.84,40.84,0,0,1-4.58-4.93,75.47,75.47,0,0,1-7.57-10.91c-2.28-3.87-4.22-7.74-6.86-11.26L124,53.33l-3.16-3.7a26,26,0,0,1-2.29-2.29l-1.23-1.05-1.24-1.06a23.16,23.16,0,0,1-2.46-1.94L111,41.54c-.53-.18-.88-.53-1.41-.71l-1.4-.7c-.53-.18-.88-.53-1.41-.71l-1.41-.53a28.76,28.76,0,0,0-12.14-1.58,41,41,0,0,0-6.69,1.23,7.64,7.64,0,0,0-.71,1.76l-1,3.17a19.09,19.09,0,0,0-.88,3c-.53,2.11-1.06,4.23-1.41,6.51A80.38,80.38,0,0,0,82,66a61.81,61.81,0,0,0,7,24.81,71.14,71.14,0,0,0,7.39,10.56,54.37,54.37,0,0,0,9.51,8.45,51.77,51.77,0,0,0,11.26,5.63l3,.88,1.41.35,1.58.18a36,36,0,0,0,6.17.7,45.83,45.83,0,0,0,12.14-1.76,40.21,40.21,0,0,0,11.09-5.28,3.49,3.49,0,0,1,4.92,1.06,3.43,3.43,0,0,1-1.05,4.75.18.18,0,0,1-.18.18,47.49,47.49,0,0,1-27.1,6.33,45.31,45.31,0,0,1-6.87-1l-1.75-.35-.88-.36-.88-.17-3.17-1.06a47.29,47.29,0,0,1-12-6.86,56.12,56.12,0,0,1-9.68-9.68,69.89,69.89,0,0,1-7.22-11.44A73,73,0,0,1,80.2,66a86.7,86.7,0,0,1,.35-13.38c.36-2.11.71-4.4,1.24-6.51a18.24,18.24,0,0,1,.7-3.34,15.27,15.27,0,0,1,.88-3,5.46,5.46,0,0,0-1.76.71,3.6,3.6,0,0,1-4.75-1.76A3.75,3.75,0,0,1,78.62,34a.65.65,0,0,0,.53-.18,45.36,45.36,0,0,1,7-1.58A63.2,63.2,0,0,1,96.57,16a52.61,52.61,0,0,1,10.74-9,46.81,46.81,0,0,1,12.84-5.63A23.53,23.53,0,0,1,123.5.7L127,.18c1.23,0,2.46-.18,3.52-.18h1.93a6.44,6.44,0,0,1,1.76.18A41,41,0,0,1,148,3.34l1.58.88c.53.18,1.06.53,1.59.71,1.05.53,2.11,1.23,3,1.76a29.23,29.23,0,0,1,3,2.11l2.64,2.11a55.7,55.7,0,0,1,9.15,10.21,77.66,77.66,0,0,1,6.69,11.79A97.53,97.53,0,0,1,180,45.58C182.1,54.21,183.16,63.18,181.58,72.16Zm-1.06-13.38a65.84,65.84,0,0,0-2.29-12.85,56.89,56.89,0,0,0-12.14-22.7A51,51,0,0,0,145.5,9.33a44.08,44.08,0,0,0-11.8-2.64,40.51,40.51,0,0,0-12.14.88A45.12,45.12,0,0,0,110.12,12a46.84,46.84,0,0,0-10.21,7.21,54.16,54.16,0,0,0-10,12.67h3.35A33.43,33.43,0,0,1,107,35a43.1,43.1,0,0,1,11.27,7.92,7.92,7.92,0,0,0,1.23,1.23l1.06,1.24,2.28,2.64,1.94,2.64,1,1.4a10.19,10.19,0,0,1,.89,1.41,44.16,44.16,0,0,1,3.69,5.63c1.06,1.76,2.11,3.7,3.17,5.64A78,78,0,0,0,141.1,75.5a52.76,52.76,0,0,0,4.57,4.4,34.69,34.69,0,0,0,5.11,3.7,28.67,28.67,0,0,0,5.8,2.64,16,16,0,0,0,17.08-3.7,27.17,27.17,0,0,0,3.87-4.93,23.84,23.84,0,0,0,2.29-5.8A53.36,53.36,0,0,0,180.52,58.78Z"/><path class="cls-1" d="M203.58,4.22c-.88,13.2-1.59,26.58-1.94,40-.53,13.2-.88,26.58-1.06,40-.17,3.35-.17,6.69-.17,9.86v5.1a47.68,47.68,0,0,0,.17,4.93,19.37,19.37,0,0,0,1.06,4.58,16.7,16.7,0,0,0,2.46,4.22,15.43,15.43,0,0,0,3.52,3.17,11.33,11.33,0,0,0,4.23,1.76l1.05.35,1.06.18h2.29l5.1-.18c3.35-.17,6.69-.35,10-.7,6.51-.35,25-.88,31.68-1.41a3.63,3.63,0,0,1,4.05,3.34,3.72,3.72,0,0,1-3.34,4.05h-.71c-6.69-.7-25.17-1.23-31.68-1.58l-10-.53-5.1-.18a29.23,29.23,0,0,1-5.28-.88,23.26,23.26,0,0,1-4.58-2.64,17.93,17.93,0,0,1-3.69-3.69,20,20,0,0,1-3.35-9.68c-.17-1.76,0-3.52,0-5.11V94c0-3.17-.17-6.51-.17-9.86-.18-13.37-.53-26.75-1.06-39.95-.53-13.37-1.06-26.75-1.94-39.95A3.52,3.52,0,0,1,199.7.35a3.7,3.7,0,0,1,3.88,3.35Z"/><path class="cls-1" d="M278.37,119.32c.88-9.68,1.41-19,1.94-28.68l1.06-28.51c0-4.93.17-9.68,0-14.44,0-2.28-.18-4.92-.36-7.21,0-2.47-.17-4.75-.17-7.22-.53-9.5-1.24-19-2.47-28.68a3.48,3.48,0,0,1,3.17-4,3.56,3.56,0,0,1,4,3.17v.88c-1.23,9.68-1.94,19.18-2.46,28.68-.18,2.47-.18,4.75-.36,7.22-.17,2.29-.17,4.93-.17,7.21-.18,4.76-.18,9.51,0,14.44.17,9.32.53,19,1,28.51.53,9.68,1.06,19,1.76,28.68a3.54,3.54,0,1,1-7,.71Z"/><path class="cls-1" d="M398.05,35A51.3,51.3,0,0,0,378.87,9a38.83,38.83,0,0,0-3.7-2.12A26.31,26.31,0,0,0,371.3,5.1a34,34,0,0,0-3.87-1.23l-2.11-.53A8.79,8.79,0,0,1,363.38,3l-2.11-.17c-.71-.18-1.41,0-2.11-.18h-4.05a45.27,45.27,0,0,0-8.27,1.23,44.59,44.59,0,0,0-7.92,2.29,33.14,33.14,0,0,0-7.57,3.7,42.61,42.61,0,0,0-6.51,5.1A47.7,47.7,0,0,0,319,21.12a58.18,58.18,0,0,0-4.4,7,59.54,59.54,0,0,0-3.17,7.74L310.4,40c-.35,1.41-.52,2.64-.88,4l-.52,4c0,.7-.18,1.4-.18,2.11s-.18,1.23-.18,1.93c-1.05,10.74-.7,21.83,2.47,32.39A61.49,61.49,0,0,0,318,99.61a46.38,46.38,0,0,0,11.44,12,41.11,41.11,0,0,0,15.14,7,32.1,32.1,0,0,0,8.09,1.06,44.31,44.31,0,0,0,8.28-.53,43.14,43.14,0,0,0,7.92-1.94,39.77,39.77,0,0,0,7.56-3,72.69,72.69,0,0,0,6.87-4.22,57.08,57.08,0,0,0,5.8-5.46,3.61,3.61,0,0,1,5.28,4.93c0,.17-.17.17-.17.35a71.37,71.37,0,0,1-7.57,5.28,50.21,50.21,0,0,1-8.1,4.05,52.64,52.64,0,0,1-17.24,4,49.41,49.41,0,0,1-8.8-.18,47.15,47.15,0,0,1-8.63-1.94,56.07,56.07,0,0,1-15.48-7.91A62.8,62.8,0,0,1,315.86,101a75.15,75.15,0,0,1-9.15-15,59.18,59.18,0,0,1-4.58-34.85,63.35,63.35,0,0,1,6-16.71c1.4-2.47,3-4.93,4.57-7.4s3.35-4.75,5.11-7a49.78,49.78,0,0,1,5.8-6.33,71.62,71.62,0,0,1,6.87-5.46,46.2,46.2,0,0,1,15.84-7.21A35.81,35.81,0,0,1,354.93,0h2.29c.7,0,1.41.18,2.11.18.71.17,1.59.17,2.29.35l2.11.35A36.34,36.34,0,0,1,368,1.94l2.11.7a6.48,6.48,0,0,1,1.93.7,28.59,28.59,0,0,1,4.05,1.76c.71.36,1.41.53,1.94.88A5.31,5.31,0,0,0,379.92,7l1.06.53.88.7c.53.35,1.23.71,1.76,1.06l3.69,2.46a70.81,70.81,0,0,1,6.52,6l1.58,1.58L397,20.94l2.64,3.52c1.06,1.24,1.76,2.47,2.64,3.7s1.59,2.46,2.47,3.87A3.65,3.65,0,0,1,403.68,37a3.52,3.52,0,0,1-5.1-1.06,1.26,1.26,0,0,1-.35-.7Z"/><path class="cls-1" d="M515.44,72.16a27.1,27.1,0,0,1-2.29,6.33,21.61,21.61,0,0,1-4,5.63,18.13,18.13,0,0,1-12.5,6,18.53,18.53,0,0,1-7-1.23,28.93,28.93,0,0,1-6.16-3A41.17,41.17,0,0,1,478,81.66a41.6,41.6,0,0,1-4.57-4.93,75.47,75.47,0,0,1-7.57-10.91c-2.29-3.87-4.22-7.74-6.86-11.26l-1.06-1.23-3.17-3.7a29.08,29.08,0,0,1-2.29-2.29l-1.23-1.05L450,45.23a23.16,23.16,0,0,1-2.46-1.94l-2.64-1.75c-.53-.18-.88-.53-1.41-.71l-1.41-.7c-.53-.18-.88-.53-1.41-.71l-1.4-.53a28.8,28.8,0,0,0-12.15-1.58,41.2,41.2,0,0,0-6.69,1.23,7.6,7.6,0,0,0-.7,1.76l-1.06,3.17a20.23,20.23,0,0,0-.88,3c-.52,2.11-1.05,4.23-1.4,6.51a79.27,79.27,0,0,0-.53,13,61.81,61.81,0,0,0,7,24.81,70.41,70.41,0,0,0,7.39,10.56,54.3,54.3,0,0,0,9.5,8.45A51.85,51.85,0,0,0,451,115.45l3,.88,1.41.35,1.58.18a35.88,35.88,0,0,0,6.16.7,45.83,45.83,0,0,0,12.14-1.76,40.07,40.07,0,0,0,11.09-5.28,3.5,3.5,0,0,1,4.93,1.06,3.43,3.43,0,0,1-1.06,4.75.17.17,0,0,1-.17.18,47.51,47.51,0,0,1-27.1,6.33,45.31,45.31,0,0,1-6.87-1l-1.76-.35-.88-.36-.88-.17-3.17-1.06a47.23,47.23,0,0,1-12-6.86,55.77,55.77,0,0,1-9.68-9.68,69.23,69.23,0,0,1-7.22-11.44A72.79,72.79,0,0,1,414.07,66a84.27,84.27,0,0,1,.35-13.38c.35-2.11.7-4.4,1.23-6.51a18.23,18.23,0,0,1,.71-3.34,14,14,0,0,1,.88-3,5.28,5.28,0,0,0-1.76.71,3.61,3.61,0,0,1-4.76-1.76A3.76,3.76,0,0,1,412.48,34a.63.63,0,0,0,.53-.18,45.88,45.88,0,0,1,7-1.58A63.24,63.24,0,0,1,430.44,16a52.28,52.28,0,0,1,10.73-9A46.74,46.74,0,0,1,454,1.41,23.7,23.7,0,0,1,457.36.7l3.52-.52c1.24,0,2.47-.18,3.52-.18h1.94a6.48,6.48,0,0,1,1.76.18,41,41,0,0,1,13.73,3.16l1.58.88c.53.18,1.06.53,1.58.71,1.06.53,2.12,1.23,3,1.76a31.6,31.6,0,0,1,3,2.11l2.64,2.11a55.7,55.7,0,0,1,9.15,10.21,78.52,78.52,0,0,1,6.69,11.79,97.53,97.53,0,0,1,4.4,12.67C516,54.21,517,63.18,515.44,72.16Zm-1.05-13.38a66.59,66.59,0,0,0-2.29-12.85A56.91,56.91,0,0,0,500,23.23a50.9,50.9,0,0,0-20.59-13.9,43.92,43.92,0,0,0-11.79-2.64,40.46,40.46,0,0,0-12.14.88A45.12,45.12,0,0,0,444,12a46.36,46.36,0,0,0-10.21,7.21,54.16,54.16,0,0,0-10,12.67h3.34A33.47,33.47,0,0,1,440.82,35a43,43,0,0,1,11.26,7.92,7.55,7.55,0,0,0,1.24,1.23l1.05,1.24,2.29,2.64,1.94,2.64,1,1.4a10.2,10.2,0,0,1,.88,1.41,45.3,45.3,0,0,1,3.7,5.63c1,1.76,2.11,3.7,3.16,5.64A78.82,78.82,0,0,0,475,75.5a52.88,52.88,0,0,0,4.58,4.4,34.09,34.09,0,0,0,5.1,3.7,28.75,28.75,0,0,0,5.81,2.64,16,16,0,0,0,17.07-3.7,26.32,26.32,0,0,0,3.87-4.93,23.44,23.44,0,0,0,2.29-5.8A53.86,53.86,0,0,0,514.39,58.78Z"/><path class="cls-1" d="M603.44,92.22a45.65,45.65,0,0,1-.88,5.11,24.65,24.65,0,0,1-2.11,4.92,36.89,36.89,0,0,1-3,4.23,38,38,0,0,1-3.52,3.87A42.43,42.43,0,0,1,554.16,120a24,24,0,0,1-5.1-1.59,43.57,43.57,0,0,1-5.11-1.93,52.77,52.77,0,0,1-9.15-6.16,37.87,37.87,0,0,1-6.86-9,28.54,28.54,0,0,1-3.17-11.44,4,4,0,1,1,7.92-.52v.52a20.63,20.63,0,0,0,1.23,8.63,24.31,24.31,0,0,0,4.93,7.74,30.15,30.15,0,0,0,7.39,5.81,3.73,3.73,0,0,1,1.06.7l28.33-45.4c-.7-.18-1.41-.53-2.29-.71l-2.28-.53c-.88-.17-1.76-.17-2.47-.35l-2.46-.53A68.17,68.17,0,0,1,555.74,63,53.4,53.4,0,0,1,536.91,52.8a32.45,32.45,0,0,1-6.86-8.63,22.15,22.15,0,0,1-2.46-10.55c0-.88.17-1.77.17-2.65.18-.88.18-1.76.35-2.64a28.77,28.77,0,0,1,1.41-5.1,31.85,31.85,0,0,1,5.63-8.62,18.53,18.53,0,0,1,3.7-3.7,22.88,22.88,0,0,1,4-3.17,47.46,47.46,0,0,1,9.32-4.92,40.88,40.88,0,0,1,21.12-1.76,34.87,34.87,0,0,1,18.84,9.32c1.23,1.24,2.46,2.29,3.69,3.7a19.23,19.23,0,0,1,2.64,4.58,13,13,0,0,1,1.41,5.1,16.15,16.15,0,0,1-.53,5.1,32.48,32.48,0,0,1-4.4,9.33c-1.93,3-4,5.46-5.81,8.27,0,0,0,.18-.17.18,0,.17,0,.17-.18.17l-9.5,15.32a42.17,42.17,0,0,1,7.92,4A40.33,40.33,0,0,1,595.7,73a36.27,36.27,0,0,1,5.8,8.8A23.59,23.59,0,0,1,603.44,92.22ZM579.15,62l9.68-15.49c1.76-2.81,3.87-5.63,5.63-8.45a31.17,31.17,0,0,0,4-9.32,14.14,14.14,0,0,0-.88-9.68A20.83,20.83,0,0,0,594.82,15l-.88-1.06-.88-.88a20.93,20.93,0,0,0-1.94-1.58,33.46,33.46,0,0,0-8.8-4.22,62.61,62.61,0,0,0-9.68-1.94,56.74,56.74,0,0,0-19.71.18A37,37,0,0,0,543.6,8.8L541.31,10a13.11,13.11,0,0,1-1.93,1.41,23.92,23.92,0,0,0-3.7,3.52,23.06,23.06,0,0,0-5.1,8.8,44,44,0,0,0-.88,4.75,48.36,48.36,0,0,0,0,5.11,18.35,18.35,0,0,0,3.17,9,24.2,24.2,0,0,0,6.86,6.51c5.28,3.7,11.62,5.81,17.77,7.57l9.68,2.11,2.64.53,2.64.53c1.76.53,3.35,1,5.11,1.58Zm23.23,30.27a19.62,19.62,0,0,0-2.46-9.5,34.71,34.71,0,0,0-3-4,31.75,31.75,0,0,0-3.52-3.34c-5.11-4-11.27-6.34-17.43-7.92L547.65,113a15.11,15.11,0,0,0,3,1.23,34.22,34.22,0,0,0,4.58,1.58A58,58,0,0,0,564.9,117a47.17,47.17,0,0,0,9.85-.53,37.23,37.23,0,0,0,18.13-7.39c1.23-1.06,2.46-2.12,3.7-3.35a34.71,34.71,0,0,0,3-4A22.77,22.77,0,0,0,602.38,92.22Z"/><path class="cls-1" d="M75,203.58a2.94,2.94,0,0,1-1.76,0,108.06,108.06,0,0,0-14.79-2.29c-5.1-.35-10-.7-15-.7s-10,.35-14.95.7A125,125,0,0,0,15,203.23l.36,13.55c.52,12.85,1,25.7,1.93,38.72a3.43,3.43,0,0,1-3.34,3.7,3.49,3.49,0,0,1-3.87-3.35v-.35c.7-13,1.4-25.87,1.76-38.72l.52-13a3.68,3.68,0,0,1-.52-7.22l.7-.17.18-8.63c.17-1.58.17-3.34.35-4.93a44.44,44.44,0,0,1,.88-4.75,53.81,53.81,0,0,1,7-18.12,51.75,51.75,0,0,1,6.16-7.75,41.51,41.51,0,0,1,7.92-5.81c6-3.16,12.32-5.1,18.65-6.86a175,175,0,0,1,19.54-3.17,3.62,3.62,0,0,1,4,3.17,3.91,3.91,0,0,1-3.17,4.22h-.88a84.68,84.68,0,0,0-18.83,0,86.6,86.6,0,0,0-9.33,1.59,90,90,0,0,0-9,3A35.19,35.19,0,0,0,22,160.64a45.87,45.87,0,0,0-6.86,17.6,57.32,57.32,0,0,0-.7,9.5l.35,9.15c4.57.88,9.15,1.41,13.73,1.94,4.92.35,10,.53,15,.53s9.86-.18,15-.53a108.06,108.06,0,0,0,14.79-2.29,3.81,3.81,0,0,1,4.57,2.64A3.88,3.88,0,0,1,75,203.58Z"/><path class="cls-1" d="M101.41,255.32c.88-9.68,1.41-19,1.93-28.68l1.06-28.51c0-4.93.18-9.68,0-14.44,0-2.28-.18-4.92-.35-7.21,0-2.47-.18-4.75-.18-7.22-.53-9.5-1.23-19-2.46-28.68a3.47,3.47,0,0,1,3.17-4.05,3.56,3.56,0,0,1,4,3.17v.88c-1.23,9.68-1.93,19.18-2.46,28.68-.18,2.47-.18,4.75-.35,7.22-.18,2.29-.18,4.93-.18,7.21-.17,4.76-.17,9.51,0,14.44.18,9.32.53,19,1.06,28.51.53,9.68,1,19,1.76,28.68a3.54,3.54,0,1,1-7,.71Z"/><path class="cls-1" d="M230.24,208.16a27.1,27.1,0,0,1-2.29,6.33,21.64,21.64,0,0,1-4,5.63,18.08,18.08,0,0,1-12.49,6,18.5,18.5,0,0,1-7-1.23,28.7,28.7,0,0,1-6.16-3,41.56,41.56,0,0,1-10-9.16,74.68,74.68,0,0,1-7.57-10.91c-2.29-3.87-4.23-7.74-6.87-11.26l-1.05-1.23-3.17-3.7a29.08,29.08,0,0,1-2.29-2.29L166,182.29l-1.23-1.06a23.24,23.24,0,0,1-2.47-1.94l-2.64-1.75c-.52-.18-.88-.53-1.4-.71l-1.41-.7c-.53-.18-.88-.53-1.41-.71l-1.41-.53a28.74,28.74,0,0,0-12.14-1.58,41,41,0,0,0-6.69,1.23,7.18,7.18,0,0,0-.7,1.76l-1.06,3.17a20.23,20.23,0,0,0-.88,3c-.53,2.11-1.05,4.23-1.41,6.51a80.39,80.39,0,0,0-.52,13,61.65,61.65,0,0,0,7,24.81,70.41,70.41,0,0,0,7.39,10.56,53.94,53.94,0,0,0,9.5,8.45,52,52,0,0,0,11.26,5.63l3,.88,1.4.35,1.59.18a35.88,35.88,0,0,0,6.16.7,45.83,45.83,0,0,0,12.14-1.76,40.07,40.07,0,0,0,11.09-5.28,3.5,3.5,0,0,1,4.93,1.06,3.44,3.44,0,0,1-1.06,4.75.18.18,0,0,1-.18.18,47.49,47.49,0,0,1-27.1,6.33,45.18,45.18,0,0,1-6.86-1l-1.76-.35-.88-.36-.88-.17-3.17-1.06a47.29,47.29,0,0,1-12-6.86,56.48,56.48,0,0,1-9.68-9.68,69.84,69.84,0,0,1-7.21-11.44A72.58,72.58,0,0,1,128.87,202a84.27,84.27,0,0,1,.35-13.38c.35-2.11.7-4.4,1.23-6.51a19.11,19.11,0,0,1,.7-3.34,15.27,15.27,0,0,1,.88-3,5.46,5.46,0,0,0-1.76.71,3.6,3.6,0,0,1-4.75-1.76,3.76,3.76,0,0,1,1.76-4.75.64.64,0,0,0,.53-.18,45.88,45.88,0,0,1,7-1.58A63.2,63.2,0,0,1,145.23,152,52.61,52.61,0,0,1,156,143a46.74,46.74,0,0,1,12.85-5.63,23.12,23.12,0,0,1,3.34-.71l3.52-.52c1.23,0,2.46-.18,3.52-.18h1.94a6.51,6.51,0,0,1,1.76.18,40.89,40.89,0,0,1,13.72,3.16l1.59.88c.53.18,1,.53,1.58.71,1.06.53,2.11,1.23,3,1.76a29.23,29.23,0,0,1,3,2.11l2.65,2.11a56.07,56.07,0,0,1,9.15,10.21,77.6,77.6,0,0,1,6.68,11.79,97.53,97.53,0,0,1,4.4,12.67C230.77,190.21,231.82,199.18,230.24,208.16Zm-1.06-13.38a65.1,65.1,0,0,0-2.29-12.85,56.76,56.76,0,0,0-12.14-22.7,51,51,0,0,0-20.59-13.9,44,44,0,0,0-11.79-2.64,40.55,40.55,0,0,0-12.15.88,45.12,45.12,0,0,0-11.44,4.4,46.54,46.54,0,0,0-10.2,7.21,53.65,53.65,0,0,0-10,12.67h3.34A33.51,33.51,0,0,1,155.62,171a43.21,43.21,0,0,1,11.26,7.92,7.92,7.92,0,0,0,1.23,1.23l1.06,1.24,2.29,2.64,1.93,2.64,1.06,1.4a10.2,10.2,0,0,1,.88,1.41,44.16,44.16,0,0,1,3.69,5.63c1.06,1.76,2.12,3.7,3.17,5.64a78,78,0,0,0,7.57,10.73,52.88,52.88,0,0,0,4.58,4.4,34.09,34.09,0,0,0,5.1,3.7,28.75,28.75,0,0,0,5.81,2.64,16,16,0,0,0,17.07-3.7,26.74,26.74,0,0,0,3.87-4.93,23.44,23.44,0,0,0,2.29-5.8A53.36,53.36,0,0,0,229.18,194.78Z"/><path class="cls-1" d="M318.24,228.22a45.65,45.65,0,0,1-.88,5.11,24.69,24.69,0,0,1-2.12,4.92,35.7,35.7,0,0,1-3,4.23,36.9,36.9,0,0,1-3.52,3.87A42.41,42.41,0,0,1,269,256a24.29,24.29,0,0,1-5.11-1.59,42.75,42.75,0,0,1-5.1-1.93,52,52,0,0,1-9.15-6.16,37.91,37.91,0,0,1-6.87-9,28.37,28.37,0,0,1-3.16-11.44,4,4,0,1,1,7.92-.52v.52a20.47,20.47,0,0,0,1.23,8.63,24,24,0,0,0,4.93,7.74,30,30,0,0,0,7.39,5.81,3.56,3.56,0,0,1,1,.7l28.34-45.4c-.71-.18-1.41-.53-2.29-.71l-2.29-.53c-.88-.17-1.76-.17-2.46-.35l-2.46-.53A68.17,68.17,0,0,1,270.54,199a53.31,53.31,0,0,1-18.83-10.21,32.25,32.25,0,0,1-6.86-8.63,22.16,22.16,0,0,1-2.47-10.55c0-.88.18-1.77.18-2.65.17-.88.17-1.76.35-2.64a27.16,27.16,0,0,1,1.41-5.1,31.62,31.62,0,0,1,5.63-8.62,18.53,18.53,0,0,1,3.7-3.7,23.18,23.18,0,0,1,4-3.17,47.83,47.83,0,0,1,9.33-4.92,40.88,40.88,0,0,1,21.12-1.76A34.8,34.8,0,0,1,307,146.38c1.23,1.24,2.47,2.29,3.7,3.7a19.93,19.93,0,0,1,2.64,4.58,13,13,0,0,1,1.41,5.1,16.45,16.45,0,0,1-.53,5.1,32.48,32.48,0,0,1-4.4,9.33c-1.94,3-4.05,5.46-5.81,8.27,0,0,0,.18-.17.18,0,.17,0,.17-.18.17l-9.5,15.32a41.78,41.78,0,0,1,7.91,4,40.07,40.07,0,0,1,8.45,6.87,36.3,36.3,0,0,1,5.81,8.8A23.73,23.73,0,0,1,318.24,228.22ZM294,198l9.68-15.49c1.76-2.81,3.87-5.63,5.63-8.45a31.43,31.43,0,0,0,4.05-9.32,14.14,14.14,0,0,0-.88-9.68,20.88,20.88,0,0,0-2.82-4l-.88-1.06-.88-.88a20.73,20.73,0,0,0-1.93-1.58,33.46,33.46,0,0,0-8.8-4.22,62.85,62.85,0,0,0-9.68-1.94,56.74,56.74,0,0,0-19.71.18,37,37,0,0,0-9.33,3.34L256.11,146a12.67,12.67,0,0,1-1.94,1.41,23.84,23.84,0,0,0-3.69,3.52,23.21,23.21,0,0,0-5.11,8.8,46.57,46.57,0,0,0-.88,4.75c0,1.76-.17,3.52,0,5.11a18.45,18.45,0,0,0,3.17,9,24.23,24.23,0,0,0,6.87,6.51c5.28,3.7,11.61,5.81,17.77,7.57l9.68,2.11,2.64.53,2.64.53c1.76.53,3.34,1,5.1,1.58Zm23.23,30.27a19.62,19.62,0,0,0-2.46-9.5,33.68,33.68,0,0,0-3-4.05,30.08,30.08,0,0,0-3.52-3.34c-5.1-4.05-11.26-6.34-17.42-7.92L262.45,249a14.87,14.87,0,0,0,3,1.23A34.57,34.57,0,0,0,270,251.8a58.1,58.1,0,0,0,9.68,1.24,47.23,47.23,0,0,0,9.86-.53,37.23,37.23,0,0,0,18.13-7.39c1.23-1.06,2.46-2.12,3.69-3.35a33.61,33.61,0,0,0,3-4.05A22.78,22.78,0,0,0,317.18,228.22Z"/><path class="cls-1" d="M409.93,143.74a1.47,1.47,0,0,1-1.23,0,203.16,203.16,0,0,0-20.59-2.28q-8.19-.54-16.9-.53c-1.23,9.5-1.76,18.65-2.29,28.16-.17,2.29-.35,4.75-.35,7-.17,2.46-.17,4.92-.35,7.21,0,4.93,0,9.68.18,14.43.17,9.68.52,19.19,1.05,28.69.35,9.68,1.06,19.18,1.76,28.86A3.55,3.55,0,0,1,368,259.2a3.63,3.63,0,0,1-4-3.35v-.53c.88-9.68,1.4-19.18,1.93-28.86.53-9.5.88-19,1.06-28.69.17-4.75.17-9.5,0-14.43,0-2.29,0-4.75-.18-7.21-.17-2.29-.17-4.75-.35-7-.53-9.51-1.23-18.66-2.29-28.16-5.81,0-11.44.17-17.07.53a205.36,205.36,0,0,0-20.42,2.28,3.6,3.6,0,0,1-4.22-2.81,3.74,3.74,0,0,1,3-4.23h1.23A205.42,205.42,0,0,0,347.1,139c5.63.35,11.26.71,16.9.71a3.74,3.74,0,0,1,3.16-3.52,3.63,3.63,0,0,1,4.23,3.16v.36c5.63,0,11.26-.36,16.72-.71a162.1,162.1,0,0,0,20.59-2.29,3.6,3.6,0,0,1,4.22,3A3.55,3.55,0,0,1,409.93,143.74Z"/><path class="cls-1" d="M418,245.47a23.72,23.72,0,0,1,1.05-6.16,53.91,53.91,0,0,1,1.94-5.63c.88-1.94,1.76-3.7,2.46-5.64l4.93-10.91c3.35-7.21,6.34-14.43,9.33-21.82,3-7.57,6-14.78,8.45-22.35,2.64-7.57,4.57-15.14,7.57-22.53l1.23-3.17a23.62,23.62,0,0,1,1.4-3,13.56,13.56,0,0,1,4.23-5.45,11.57,11.57,0,0,1,7.21-2.47,10.91,10.91,0,0,1,7.22,2.47,15,15,0,0,1,4.22,6c.71,1.94,1.24,4,1.76,6,.88,4.05,1.59,7.92,2.64,11.8,1.59,7.74,3.7,15.48,5.64,23,1.93,7.74,3.69,15.49,5.8,23.23,4.4,15.31,8.8,30.63,14.44,45.58a3.23,3.23,0,0,1-2.12,4.23,3.31,3.31,0,0,1-4.22-1.94c0-.17-.18-.35-.18-.7q-1.84-11.62-4.22-23.23l-1.23-3.7c-.53-1.76-1.23-3.69-1.76-5.63a12.8,12.8,0,0,0-2.64-5.1c-2.47-3-6.34-4.4-10.21-4.58a21.44,21.44,0,0,0-5.81.35,14.46,14.46,0,0,0-5.63,2.11,20.87,20.87,0,0,0-4.4,3.35,46.57,46.57,0,0,0-3.52,4.57c-1.23,1.41-2.11,3-3.34,4.58-1.06,1.41-2.12,3-3.35,4.75a48.71,48.71,0,0,1-3.16,4.93c-1.24,1.58-2.64,3.17-3.7,4.75-1.23,1.58-2.64,3.17-4.05,4.93l-4.22,4.22a20.1,20.1,0,0,1-4.93,3.7,18.87,18.87,0,0,1-6.16,2.29,12.67,12.67,0,0,1-6.69-1.24,7.36,7.36,0,0,1-2.81-1.93,6.27,6.27,0,0,1-1.94-2.82A11.92,11.92,0,0,1,418,245.47Zm3.52.17a16.59,16.59,0,0,0,.7,5.28,8.69,8.69,0,0,0,3.35,3.35,9.92,9.92,0,0,0,4.92,1.41,13.41,13.41,0,0,0,5.11-1.59,12.7,12.7,0,0,0,4.4-3.69,49.7,49.7,0,0,0,6.86-9.15c2.11-3.53,3.7-7,6-10.39l3.16-4.93a25.13,25.13,0,0,1,14.79-11.26A36.54,36.54,0,0,1,483,213.09a22.09,22.09,0,0,1,6,1.23,11.28,11.28,0,0,1,4.93,3.34,10.06,10.06,0,0,1,2.29,3.7l-2.64-12.15c-1.76-7.74-3.7-15.48-5.63-23.05-1.94-7.74-3.87-15.49-6.16-23.23-.53-1.94-1.23-3.7-1.76-5.46a30.67,30.67,0,0,0-1.94-5.63,17.84,17.84,0,0,0-2.81-5.1,9.65,9.65,0,0,0-7.4-3.88,9.74,9.74,0,0,0-3.87.88,30.83,30.83,0,0,0-3.87,3.17,18.66,18.66,0,0,0-3.17,4.75,176.34,176.34,0,0,0-9.68,21.83c-1.4,3.69-3,7.39-4.4,10.91-1.23,3.69-2.64,7.39-3.87,11.26l-4.22,11.27c-1.23,3.69-2.82,7.39-4.23,11.08l-4.4,11.09c-.88,1.94-1.58,3.7-2.28,5.46l-1.59,5.63C421.9,242.12,421.72,243.88,421.55,245.64Z"/><path class="cls-1" d="M597.9,228.22a45.65,45.65,0,0,1-.88,5.11,24.69,24.69,0,0,1-2.12,4.92,35.7,35.7,0,0,1-3,4.23,36.9,36.9,0,0,1-3.52,3.87A42.41,42.41,0,0,1,548.62,256a24.29,24.29,0,0,1-5.11-1.59,42.75,42.75,0,0,1-5.1-1.93,52,52,0,0,1-9.15-6.16,37.91,37.91,0,0,1-6.87-9,28.53,28.53,0,0,1-3.16-11.44,4,4,0,1,1,7.92-.52v.52a20.47,20.47,0,0,0,1.23,8.63,24,24,0,0,0,4.93,7.74,30,30,0,0,0,7.39,5.81,3.56,3.56,0,0,1,1,.7l28.34-45.4c-.7-.18-1.41-.53-2.29-.71l-2.29-.53c-.88-.17-1.76-.17-2.46-.35l-2.46-.53A68.17,68.17,0,0,1,550.2,199a53.31,53.31,0,0,1-18.83-10.21,32.25,32.25,0,0,1-6.86-8.63A22.16,22.16,0,0,1,522,169.62c0-.88.18-1.77.18-2.65.17-.88.17-1.76.35-2.64a27.16,27.16,0,0,1,1.41-5.1,31.62,31.62,0,0,1,5.63-8.62,18.53,18.53,0,0,1,3.7-3.7,23.18,23.18,0,0,1,4-3.17,47.83,47.83,0,0,1,9.33-4.92,40.88,40.88,0,0,1,21.12-1.76,34.8,34.8,0,0,1,18.83,9.32c1.23,1.24,2.47,2.29,3.7,3.7a19.93,19.93,0,0,1,2.64,4.58,13,13,0,0,1,1.41,5.1,16.45,16.45,0,0,1-.53,5.1,32.48,32.48,0,0,1-4.4,9.33c-1.94,3-4.05,5.46-5.81,8.27,0,0,0,.18-.17.18,0,.17,0,.17-.18.17l-9.5,15.32a41.78,41.78,0,0,1,7.91,4,40.07,40.07,0,0,1,8.45,6.87,36.3,36.3,0,0,1,5.81,8.8A23.73,23.73,0,0,1,597.9,228.22ZM573.61,198l9.68-15.49c1.76-2.81,3.87-5.63,5.63-8.45a31.43,31.43,0,0,0,4.05-9.32,14.14,14.14,0,0,0-.88-9.68,20.88,20.88,0,0,0-2.82-4l-.88-1.06-.88-.88a20.73,20.73,0,0,0-1.93-1.58,33.46,33.46,0,0,0-8.8-4.22,62.85,62.85,0,0,0-9.68-1.94,56.74,56.74,0,0,0-19.71.18,37,37,0,0,0-9.33,3.34L535.77,146a12.67,12.67,0,0,1-1.94,1.41,23.84,23.84,0,0,0-3.69,3.52,23.21,23.21,0,0,0-5.11,8.8,46.57,46.57,0,0,0-.88,4.75c0,1.76-.17,3.52,0,5.11a18.45,18.45,0,0,0,3.17,9,24.23,24.23,0,0,0,6.87,6.51c5.28,3.7,11.61,5.81,17.77,7.57l9.68,2.11,2.64.53,2.64.53c1.76.53,3.34,1,5.1,1.58Zm23.23,30.27a19.62,19.62,0,0,0-2.46-9.5,33.68,33.68,0,0,0-3-4.05,30.08,30.08,0,0,0-3.52-3.34c-5.1-4.05-11.26-6.34-17.42-7.92L542.11,249a14.87,14.87,0,0,0,3,1.23,34.57,34.57,0,0,0,4.57,1.58,58.1,58.1,0,0,0,9.68,1.24,47.23,47.23,0,0,0,9.86-.53,37.23,37.23,0,0,0,18.13-7.39c1.23-1.06,2.46-2.12,3.69-3.35a33.61,33.61,0,0,0,3-4.05A22.78,22.78,0,0,0,596.84,228.22Z"/></svg>