<svg version="1.1" xmlns="http://www.w3.org/2000/svg" xmlns:xlink="http://www.w3.org/1999/xlink" x="0px" y="0px"
	 width="442.47px" height="60.32px" viewBox="0 0 442.47 60.32" style="overflow:visible;enable-background:new 0 0 442.47 60.32;"
	 xml:space="preserve">
<style type="text/css">
	.st0{fill:#353949;}
</style>
<g>
	<path class="st0" d="M34.39,54.08H21.58c-0.13-6.59-0.14-13.21-0.14-19.84h7.44l0.88,5.68h5.04V23.36h-5.04l-0.94,5.76h-7.38
		c0-6.02,0.02-11.98,0.13-17.84h11.23l1.52,8.88h7.52l-0.56-13.6h-19.6h-8.16H5.36H0v4.72l5.48,0.54C5.6,18.33,5.6,24.87,5.6,31.36
		v2.56c0,6.59,0,13.12-0.12,19.54L0,54v4.72h5.36h8.16h8.16h21.2l0.56-13.6h-7.52L34.39,54.08z"/>
	<path class="st0" d="M66.16,41.92V13.04l0.32-11.12l-1.36-0.88l-18.48,3.6v3.6l4.32,0.8v32.88c0,3.97-0.05,7.94-0.13,11.91
		l-3.62,0.81v4.08h3.52H66.4h3.52v-4.08L66.3,53.9C66.21,49.91,66.16,45.91,66.16,41.92z"/>
	<path class="st0" d="M116.16,26.4l-4-1.92c-4.32-2.08-6.56-4-6.56-7.92c0-3.76,3.28-6.56,7.2-6.56c1.78,0,3.37,0.35,4.95,0.96
		l1.45,9.52h8.32l0.72-11.52c-4.08-2.56-10.08-4-15.92-4c-12.88,0-20.64,5.92-20.64,15.68c0,9.12,5.36,13.92,15.28,18.64l3.52,1.68
		c4,1.92,5.68,3.68,5.68,7.52c0,3.6-2.32,6.8-7.28,6.8c-2.83,0-5.19-0.44-7.62-1.25L99.68,44H91.2l-0.48,12.16
		c4.96,3.04,12.08,4.16,18.08,4.16c14.72,0,21.68-7.04,21.68-16.48C130.48,35.52,126.24,31.2,116.16,26.4z"/>
	<path class="st0" d="M155.36,18.48c-12.32,0-21.12,8.56-21.12,20.48c0,11.92,7.36,21.04,21.12,21.04
		c13.68,0,21.12-8.88,21.12-21.04C176.48,26.8,167.68,18.48,155.36,18.48z M155.36,55.6c-3.52,0-5.12-4.72-5.12-16.4
		c0-11.6,1.6-16.32,5.12-16.32c3.52,0,5.12,4.72,5.12,16.32C160.48,50.88,158.88,55.6,155.36,55.6z"/>
	<path class="st0" d="M246.24,41.92v-9.2c0-9.36-3.52-14.24-12.24-14.24c-4.37,0-7.79,1.44-12.28,6.96c-1.66-4.56-5.38-6.96-11-6.96
		c-4.75,0-8.21,1.96-11.91,6.42l-0.41-5.54l-1.44-0.88L179.28,24v3.28L183.6,28c0.24,3.2,0.24,4.56,0.24,8.96v4.96
		c0,3.29-0.04,8.01-0.11,11.87l-3.66,0.85v4.08h3.52h15.68h2.88v-4.08l-3.01-0.65c-0.07-3.9-0.11-8.72-0.11-12.07V29.03
		c1.56-1.16,3.33-1.99,4.96-1.99c3.04,0,3.84,1.92,3.84,6.8v8.08c0,3.38-0.04,8.05-0.1,11.87l-3.41,0.85v4.08h3.28h15.36h2.88v-4.08
		l-3.01-0.68c-0.07-3.85-0.11-8.61-0.11-12.04V31.84c0-1.02-0.06-1.97-0.17-2.88c1.61-1.19,3.35-1.92,5.13-1.92
		c2.72,0,3.68,1.36,3.68,6.8v8.08c0,3.39-0.04,8.07-0.11,11.89l-3.01,0.83v4.08h2.88h15.36h3.2v-4.08l-3.33-0.72
		C246.27,50.07,246.24,45.34,246.24,41.92z"/>
	<path class="st0" d="M282.32,18.48c-3.86,0-8.39,3.27-10.51,10.12l-0.61-9.24l-1.44-0.88L252.08,24v3.28L256.4,28
		c0.16,3.2,0.24,4.48,0.24,8.88v5.04c0,3.29-0.04,8.01-0.11,11.87l-3.82,0.85v4.08h3.68h15.68h6.08v-4.08l-6.22-1.38
		c-0.06-3.76-0.1-8.2-0.1-11.34v-5.04c0.61-3.62,2.8-7.28,4.72-9.47l0.4,0.59c2.08,3.04,4.08,4.4,6.72,4.4c3.2,0,5.84-2.48,6.08-6.8
		C289.2,20.72,286.24,18.48,282.32,18.48z"/>
	<path class="st0" d="M310.8,41.92V31.28l0.24-11.92l-1.44-0.88L291.04,24v3.28l4.32,0.72c0.16,3.2,0.24,5.68,0.24,10.08v3.84
		c0,3.29-0.04,8.02-0.11,11.89l-3.57,0.83v4.08h3.44h15.68h3.2v-4.08l-3.33-0.69C310.83,50.06,310.8,45.25,310.8,41.92z"/>
	<path class="st0" d="M303.04,13.76c4.08,0,7.36-2.88,7.36-6.88S307.12,0,303.04,0s-7.36,2.88-7.36,6.88S298.96,13.76,303.04,13.76z
		"/>
	<path class="st0" d="M360.16,31.12l0.24-11.36l-1.44-0.88l-17.68,3.2v3.2l3.81,0.91l-0.27,22.49c-1.66,1.59-3.55,2.77-5.14,2.77
		c-2.08,0-3.52-1.28-3.52-5.44V31.12l0.4-11.36l-1.44-0.88l-18.16,2.8v3.6l4.13,0.94l-0.29,19.38c-0.16,10.56,4.64,14.4,11.68,14.4
		c5.09,0,9.24-2.47,12.48-6.62l0.32,6.3l18.56-0.88v-4.08l-3.68-0.77V31.12z"/>
	<path class="st0" d="M396.23,18.48c-3.86,0-8.39,3.27-10.51,10.12l-0.61-9.24l-1.44-0.88L365.99,24v3.28l4.32,0.72
		c0.16,3.2,0.24,4.48,0.24,8.88v5.04c0,3.29-0.04,8.01-0.11,11.87l-3.82,0.85v4.08h3.68h15.68h6.08v-4.08l-6.22-1.38
		c-0.06-3.76-0.1-8.2-0.1-11.34v-5.04c0.61-3.62,2.8-7.28,4.72-9.47l0.4,0.59c2.08,3.04,4.08,4.4,6.72,4.4c3.2,0,5.84-2.48,6.08-6.8
		C403.12,20.72,400.16,18.48,396.23,18.48z"/>
	<path class="st0" d="M442.47,36c0-9.68-5.76-17.52-17.2-17.52c-10.48,0-21.52,6.88-21.52,20.64c0,13.2,8.8,20.88,20.8,20.88
		c7.92,0,13.92-2.88,17.36-9.36l-3.12-3.04c-2.24,2.16-5.12,3.76-9.12,3.76c-4.72,0-9.04-3.32-9.79-11.12h22.19
		C442.4,38.8,442.47,37.68,442.47,36z M423.51,35.68h-3.74c0.22-9.93,2.06-12.88,4.54-12.88c2.08,0,4.08,2,4.08,7.52
		C428.39,34.4,427.35,35.68,423.51,35.68z"/>
</g>
</svg>
