<?xml version="1.0" encoding="UTF-8"?>
<svg id="Layer_1" data-name="Layer 1" xmlns="http://www.w3.org/2000/svg" viewBox="0 0 176.02 20.58">
  <defs>
    <style>
      .cls-1 {
        fill: #231f20;
      }

      .cls-2 {
        fill: #0dbe98;
      }
    </style>
  </defs>
  <g id="Layer_1-2" data-name="Layer 1">
    <g>
      <path class="cls-1" d="M22.76,20.17h6.43L32.63,.44h-6.43l-1.27,7.06h-5.57L20.63,.44h-6.43l-3.45,19.73h6.43l1.3-7.38h5.57l-1.3,7.38Z"/>
      <path class="cls-1" d="M36.28,.42l-1.96,10.98c-.17,.86-.24,1.69-.24,2.47,0,5.82,5.08,6.7,8.14,6.7,6.4,0,9.17-2.13,10.17-7.87L54.54,.39h-6.43l-1.83,10.32c-.59,3.23-1,4.91-3.4,4.91-1.56,0-2.32-.83-2.32-2.54,0-.66,.1-1.47,.29-2.47L42.7,.39h-6.43v.02Z"/>
      <path class="cls-1" d="M88.51,20.17h6.43l.9-5.08h3.03c5.6,0,8.7-3.03,8.7-8.56,0-3.89-2.69-6.11-7.41-6.11h-8.21l-3.45,19.75Zm10.02-9.95h-1.86l.86-4.64h1.74c1.42,0,2.18,.71,2.18,2,0,1.64-1.1,2.64-2.91,2.64Z"/>
      <path class="cls-1" d="M120.07,0c-6.99,0-11.17,4.52-11.17,12.12,0,5.28,3.32,8.46,8.9,8.46,6.99,0,11.17-4.52,11.17-12.12,.02-5.3-3.3-8.46-8.9-8.46Zm-1.88,15.47c-1.66,0-2.64-1.2-2.64-3.2,0-.76,.07-1.42,.22-2.18,.49-2.59,1.32-4.96,3.94-4.96,1.66,0,2.64,1.2,2.64,3.2,0,.76-.07,1.42-.22,2.18-.49,2.57-1.32,4.96-3.94,4.96Z"/>
      <path class="cls-1" d="M151.34,20.17h6.43l2.54-14.45h4.84l.93-5.28h-16.45l-.93,5.28h5.13l-2.49,14.45Z"/>
      <path class="cls-1" d="M140.68,7.72c-2.03-.64-2.86-.9-2.86-1.86,0-.64,.42-1.39,1.64-1.39,.9,0,1.66,.51,1.96,1.27l5.67-1.54C146.42,1.42,144.03,0,139.9,0,132.12,0,131.51,5.21,131.51,6.8c0,3.23,1.71,5.21,5.43,6.23,.98,.27,2.1,.56,2.1,1.64,0,.86-.64,1.39-1.74,1.39-1,0-2.08-.59-2.44-1.61l-5.6,1.52c.61,2.93,3.37,4.6,7.7,4.6,3.3,0,8.82-.88,8.82-6.84,.02-2.98-1.66-4.94-5.11-5.99Z"/>
      <path class="cls-2" d="M7.16,20.17L10.63,.44H0V20.17H7.16Z"/>
      <path class="cls-2" d="M168.84,.44l-3.45,19.73h10.63V.44h-7.19Z"/>
      <polygon class="cls-1" points="58.2 .42 54.76 20.17 61.18 20.17 62.21 14.35 67.61 14.35 68.49 9.39 63.09 9.39 63.7 5.72 71.26 5.72 72.18 .42 58.2 .42"/>
      <polygon class="cls-1" points="75.07 .42 71.62 20.17 78.05 20.17 79.05 14.35 84.48 14.35 85.36 9.39 79.96 9.39 80.57 5.72 88.12 5.72 89.05 .42 75.07 .42"/>
    </g>
  </g>
</svg>