<svg id="Layer_1" data-name="Layer 1" xmlns="http://www.w3.org/2000/svg" viewBox="0 0 821.79 175.32"><defs><style>.cls-1{fill:none;}.cls-2{fill:#e56125;}</style></defs><path class="cls-1" d="M772.21,500H1594V675.32H772.21Z" transform="translate(-772.21 -500)"/><path class="cls-2" d="M1580.82,635.49a13.06,13.06,0,1,0-9.22-22.26,12.7,12.7,0,0,0-3.84,9.32,13.07,13.07,0,0,0,13.06,13m-52-12.48a7.37,7.37,0,0,1-7.81-6.76,12,12,0,0,1,4.2-10.62,45.28,45.28,0,0,1,4.2-3.5,41,41,0,0,1,4.89-2.92,20.76,20.76,0,0,0,3.51-2.1v16.45a8.89,8.89,0,0,1-8.32,9.43l-.66,0m32.89,7.11c-1-1-1.64-4.2-1.64-9.34,0-2-.11-7.46-.23-16.44s-.12-13.42-.12-13.54c0-16.91-9.45-24.72-28.92-24.72-10.85,0-18.55,2.45-23.1,7.46a9.44,9.44,0,0,0-2.45,10.61,7.86,7.86,0,0,0,7.47,5.26c17.15,1.05,4.43-19.94,18.08-19.94,3.26,0,5.13,1.4,5.94,5.26a52.61,52.61,0,0,1,1.06,13.88v1.75c-2.34,1.87-10,3.73-17.15,6-10.27,2.69-23,9.1-22.17,23.33.35,9.68,7.82,16,20.3,16,8.4,0,16.8-4.31,20.18-11.89a12.72,12.72,0,0,0,8.75,9.2,37.11,37.11,0,0,0,10.85,1.17h2.8c1.75,0,2.56-.58,2.56-1.75,0-.93-1.4-1.4-2.21-2.22m-75.94-64c-7.11,0-12.13,4-14.93,11.9l-.93-8.87c-.24-1.86-1.17-2.33-2.69-1.51a79.09,79.09,0,0,1-21.46,7.23c-1.29.23-2,.93-2,2s.69,1.63,2.21,2c2.33.82,2.92,2.8,2.92,7.58v36.75c0,4.78-.59,6.88-2.92,7.46-1.52.47-2.21,1.17-2.21,2,0,1.16.81,1.63,2.33,1.52,3.61-.36,8.51-.47,14.7-.47,6.41,0,11.43.12,15,.47,1.63.11,2.45-.36,2.45-1.52,0-.82-.82-1.52-2.33-1.87-3.39-.58-4.78-2.57-4.78-7.58V590.58c0-9,1.75-13.41,5.36-13.41s5.25,2.91,5.6,6.07a7.23,7.23,0,0,0,7.47,6.06,9.59,9.59,0,0,0,9.1-5,11.36,11.36,0,0,0,.46-11.08c-2.33-4.78-6.76-7.11-13.41-7.11m-45.26,60.42c-.58-.58-1.52-.58-2.8-.11a6.94,6.94,0,0,1-4.2.35c-1.75-.58-2.68-2.8-2.68-6.54V573.1h7.23c1.51,0,2.22-.93,2.22-2.8s-.71-2.69-2.22-2.69h-7.23V554.9c0-1.51-.82-2.21-2.45-2.21a2.47,2.47,0,0,0-2.45,1.75,21.87,21.87,0,0,1-7.82,9.34,19.46,19.46,0,0,1-11.31,3.84H1406c-1.75,0-2.21.7-2.21,2.69s.7,2.8,2.21,2.8h2.57v46.06c0,10.85,5.71,16.33,17,16.33,6.65,0,11.55-2.1,14.7-6.18a2.15,2.15,0,0,0,.23-2.8m-38.38,4.08c-2.68-.7-5.6-3.15-8.74-7.47l-17.15-23.79h-.12l-1-1.63,8.86-12.37c5.84-8.28,11.55-13,17.27-14.23,1.52-.23,2.1-.94,2-2s-.93-1.64-2.56-1.52c-4.2.23-8,.35-11.67.35-4.55,0-9.1-.12-13.76-.35-1.52-.12-2.45.46-2.34,1.52.12.81.94,1.39,2.45,2,4.32,1.51,5.37,5.71.35,14.23l-4.56,6.87-9.92-13.64c-2.33-3.27-2.21-6.65.24-7.47,1.52-.47,2.21-1.17,2.21-2,0-1.17-.81-1.63-2.33-1.52-3.38.35-8.75.47-16,.47-7.81,0-13.53-.12-17.15-.47-1.51-.12-2.33.35-2.33,1.52,0,.82.7,1.51,2.22,2,2.68.7,5.59,3.15,8.74,7.47l17,23.56h.12l1.29,1.87-8.87,12.36c-6.41,9-11.43,12.83-17.38,14.23-1.4.24-2,.94-1.87,2s.94,1.63,2.57,1.51q6.3-.35,11.55-.35c4.31,0,9,.12,13.88.35,1.51.12,2.33-.46,2.21-1.51-.11-.82-.81-1.4-2.33-2-4.55-1.51-5.37-5.71-.35-14.23l4.55-6.88,9.8,13.65c2.33,3.26,2.22,6.65-.23,7.46-1.52.47-2.22,1.17-2.22,2,0,1.16.82,1.63,2.33,1.51,3.62-.35,8.87-.46,16-.46,8.05,0,13.77.11,17.15.46,1.52.12,2.33-.35,2.33-1.51,0-.82-.7-1.52-2.21-2m-78.86-18.78a2.29,2.29,0,0,0-2.56,1.75c-3.73,10.27-7.12,15.06-15.4,15.06h-14.47c-2.68,0-4.08-1.52-4.08-4.44V591.87h8c9.45,0,13.06,3.26,13.53,9.91.12,1.52.82,2.22,2.22,2.22s1.86-.82,1.63-2.45c-.23-4.2-.35-8.28-.35-12.36s.12-8.4.35-12.6c.23-1.64-.35-2.45-1.63-2.45s-2.1.7-2.22,2.21c-.35,6.53-4.2,10-13.53,10h-8V555h17.5c4.32,0,7.47.82,9.33,2.57a23,23,0,0,1,5.37,9.91,2.49,2.49,0,0,0,2.57,1.86c1.28,0,1.75-.81,1.51-2.45-.58-4.9-.93-10.84-1.17-15.86-.11-1.51-1-2.1-2.56-2-3.27.35-8.28.47-15,.47h-44.32c-1.4,0-2.1.58-2.1,1.63,0,.7.7,1.28,2.21,1.87,2.34.81,2.8,2.68,2.8,7.93v61.7c0,5.14-.46,7.12-2.8,7.94-1.51.58-2.21,1.16-2.21,2,0,1,.7,1.52,2.21,1.52h45.26c6.77,0,11.79.11,15,.47,1.64.11,2.57-.47,2.68-2,.36-5.36.94-11.55,1.76-18.43.23-1.51-.24-2.33-1.52-2.33" transform="translate(-772.21 -500)"/><path d="M1220.37,623a7.38,7.38,0,0,1-7.81-6.76,12,12,0,0,1,4.2-10.62,45.28,45.28,0,0,1,4.2-3.5,40.33,40.33,0,0,1,4.9-2.92,20.68,20.68,0,0,0,3.5-2.1v16.45a8.89,8.89,0,0,1-8.31,9.43l-.67,0m32.89,7.11c-1-1-1.63-4.2-1.63-9.33,0-2-.12-7.47-.24-16.45s-.11-13.41-.11-13.53c0-16.91-9.45-24.73-28.93-24.73-10.85,0-18.55,2.45-23.09,7.47a9.41,9.41,0,0,0-2.45,10.61,7.86,7.86,0,0,0,7.46,5.25c17.15,1.05,4.43-19.94,18.08-19.94,3.27,0,5.14,1.4,6,5.25a53,53,0,0,1,1,13.88v1.75c-2.33,1.87-10,3.73-17.15,5.95-10.26,2.69-23,9.1-22.16,23.33.35,9.68,7.82,16,20.3,16,8.4,0,16.79-4.31,20.18-11.9a12.76,12.76,0,0,0,8.75,9.22,37.06,37.06,0,0,0,10.85,1.16h2.79c1.76,0,2.57-.58,2.57-1.75,0-.93-1.4-1.4-2.22-2.21m-68.24.46c-2.33-.58-2.91-2.68-2.91-7.46v-54c0-1.75-.82-2.33-2.57-1.51a72.29,72.29,0,0,1-22.63,7.11q-2.1.53-2.1,2.1c0,.93.7,1.63,2.22,2.1,2.33.59,2.8,2.68,2.8,7.46v36.75c0,4.78-.47,6.88-2.8,7.46-1.52.47-2.22,1.17-2.22,2,0,1.16.82,1.63,2.33,1.51,3.27-.35,7.93-.46,13.88-.46s10.62.11,13.77.46c1.63.12,2.45-.35,2.45-1.51,0-.82-.7-1.52-2.22-2m-5-69.29a9.81,9.81,0,0,0,0-16.09,16.22,16.22,0,0,0-19.83,0,9.91,9.91,0,0,0,0,16.09,16.67,16.67,0,0,0,19.83,0m-54.83,8.17c14.82-.82,2.92,23.33,19.94,22.28a6.4,6.4,0,0,0,6.18-4.9,12.42,12.42,0,0,0-2.33-11.78c-4.55-6.18-12.48-9.22-23.91-9-21.7.23-35.81,18.54-33.83,36a36.12,36.12,0,0,0,10.62,24,33.06,33.06,0,0,0,24.14,9.45,30.34,30.34,0,0,0,16-3.85,30.91,30.91,0,0,0,9.45-8.4,2.16,2.16,0,0,0,.24-2.8c-.59-.58-1.52-.7-2.8-.11a31.65,31.65,0,0,1-14.47,1.63,23.69,23.69,0,0,1-19.48-18.43,52.37,52.37,0,0,1-1.4-15.63,29.17,29.17,0,0,1,3.62-12.83,10.39,10.39,0,0,1,8-5.72m-37.8,61.12c-2.33-.58-2.79-2.68-2.79-7.46v-29.4c0-18.54-7.35-27.64-23.8-27.64-9.45,0-16.22,4-20.3,12l-1-9c-.23-1.87-1.17-2.33-2.68-1.51a79,79,0,0,1-21.47,7.23c-1.28.23-2,.93-2,2s.7,1.63,2.22,2c2.33.82,2.91,2.8,2.91,7.58v36.75c0,4.78-.58,6.88-2.91,7.46-1.4.59-2.1,1.17-2.1,2,0,1.16.81,1.63,2.33,1.51,3.27-.35,7.93-.46,13.88-.46s10.61.11,13.76.46c1.52.12,2.34-.35,2.34-1.51,0-.82-.71-1.52-2.1-2-2.34-.58-2.92-2.68-2.92-7.46v-30c0-9.22,3.72-16.45,11.32-16.45,6.76,0,10.14,5.72,10.14,17v29.4c0,4.78-.46,6.88-2.8,7.46-1.52.47-2.21,1.17-2.21,2,0,1.16.81,1.63,2.45,1.51,3.15-.35,7.7-.46,13.76-.46s10.62.11,13.77.46c1.63.12,2.45-.35,2.45-1.51,0-.82-.7-1.52-2.22-2M969.93,591.28a34.82,34.82,0,0,1,3.15-15.4c2.21-4.31,4.9-6.41,8.16-6.41a7.85,7.85,0,0,1,7,4.9A23.44,23.44,0,0,1,991,585q.18,4.2-1.4,5.25a15,15,0,0,1-7.11,1Zm11.31-25.2a31.26,31.26,0,0,0-24.61,11.08,37.14,37.14,0,0,0,2.45,49.47,34.09,34.09,0,0,0,24,9,30.2,30.2,0,0,0,25.55-12.13,2.16,2.16,0,0,0,.23-2.8c-.59-.58-1.52-.58-2.8-.12-8.52,3.15-16.1,2.92-22.51-.58S973,610.3,971,601.31l-.82-4.55h38a2.21,2.21,0,0,0,2.33-2.08h0c1.4-8.52-4.32-29-29.28-28.58m-.93-3.27c5.6.47,7.58-2.56,3.85-6a17.14,17.14,0,0,1-4.55-5.83l-.94-2-1.16-2.57-1-2.68a6.1,6.1,0,0,0-4.09-3.85,8.47,8.47,0,0,0-8.39,1.52c-3.15,2.45-3.85,5.6-2,9.68,3.15,6.41,11,10.85,18.32,11.66m-35.7,67.78c-2.33-.59-2.91-2.69-2.91-7.47V549.88c0-1.75-1.05-2.33-2.57-1.51a77.87,77.87,0,0,1-22.63,7.11q-2.1.53-2.1,2.1c0,.94.7,1.63,2.21,2,2.34.82,2.81,2.8,2.81,7.59v56c0,4.78-.47,6.88-2.81,7.46-1.51.47-2.21,1.17-2.21,2,0,1.16.82,1.63,2.33,1.51,3.27-.35,7.93-.47,13.88-.47a137.37,137.37,0,0,1,13.77.47c1.51.12,2.33-.35,2.33-1.51,0-.82-.7-1.52-2.1-2M877,623a7.38,7.38,0,0,1-7.81-6.77,12,12,0,0,1,4.19-10.61,48.62,48.62,0,0,1,4.21-3.51,40.26,40.26,0,0,1,4.9-2.91,21.35,21.35,0,0,0,3.5-2.1v16.44a8.89,8.89,0,0,1-8.31,9.44H877m32.89,7.12c-1.05-1-1.63-4.2-1.63-9.33,0-2-.12-7.47-.24-16.45s-.11-13.41-.11-13.53c0-16.92-9.45-24.73-28.93-24.73-10.85,0-18.54,2.45-23.09,7.46a9.44,9.44,0,0,0-2.45,10.62,7.86,7.86,0,0,0,7.46,5.25c17.15,1.05,4.44-19.94,18.08-19.94,3.27,0,5.14,1.4,5.95,5.24a53.1,53.1,0,0,1,1.05,13.89v1.75c-2.33,1.87-10,3.73-17.14,5.95-10.27,2.68-23,9.1-22.17,23.33.35,9.68,7.82,16,20.3,16,8.4,0,16.79-4.32,20.18-11.9a12.73,12.73,0,0,0,8.75,9.21,37.07,37.07,0,0,0,10.85,1.17h2.8c1.75,0,2.56-.58,2.56-1.75,0-.93-1.4-1.4-2.21-2.22M843,545.56c-8.52-1.28-13.18,3.73-12.6,9.92a20.14,20.14,0,0,0,6,10.73,9.93,9.93,0,0,1,2.33,11l-14.58,37.45-19.48-54.13c-1.75-5-1.87-6-.35-7.35q2.1-.89,2.1-2.1c0-1-.82-1.64-2.45-1.52-3.38.35-8.28.47-14.7.47-6.18,0-11.08-.12-14.7-.47-1.51-.12-2.33.47-2.33,1.52s.7,1.63,2.22,2c2.45.47,4.55,2.91,6.3,7.47l29.39,73.6c.59,1.4,1.52,1.87,2.8,1.4l8.4-2.57.7-.23a3.13,3.13,0,0,0,2.22-1.87l23.91-58.09c6.07-12.36,6.42-25.2-5.13-27.17" transform="translate(-772.21 -500)"/></svg>